<svg xmlns="http://www.w3.org/2000/svg" xmlns:xlink="http://www.w3.org/1999/xlink" width="663" zoomAndPan="magnify" viewBox="0 0 497.25 179.999997" height="240" preserveAspectRatio="xMidYMid meet" version="1.0"><defs><clipPath id="6c5b9925c6"><path d="M 0 0.136719 L 496.5 0.136719 L 496.5 179.863281 L 0 179.863281 Z M 0 0.136719 " clip-rule="nonzero"/></clipPath><clipPath id="c14c48a4dc"><path d="M 0 0.136719 L 36 0.136719 L 36 32 L 0 32 Z M 0 0.136719 " clip-rule="nonzero"/></clipPath><clipPath id="66e914898e"><path d="M 40 0.136719 L 78 0.136719 L 78 32 L 40 32 Z M 40 0.136719 " clip-rule="nonzero"/></clipPath><clipPath id="1544088915"><path d="M 82 0.136719 L 120 0.136719 L 120 32 L 82 32 Z M 82 0.136719 " clip-rule="nonzero"/></clipPath><clipPath id="01313ab451"><path d="M 124 0.136719 L 162 0.136719 L 162 32 L 124 32 Z M 124 0.136719 " clip-rule="nonzero"/></clipPath><clipPath id="28268c7f18"><path d="M 166 0.136719 L 204 0.136719 L 204 32 L 166 32 Z M 166 0.136719 " clip-rule="nonzero"/></clipPath><clipPath id="26cead84ed"><path d="M 208 0.136719 L 246 0.136719 L 246 32 L 208 32 Z M 208 0.136719 " clip-rule="nonzero"/></clipPath><clipPath id="fe64526f64"><path d="M 0 28 L 15 28 L 15 63 L 0 63 Z M 0 28 " clip-rule="nonzero"/></clipPath><clipPath id="b52707966c"><path d="M 0 59 L 36 59 L 36 92 L 0 92 Z M 0 59 " clip-rule="nonzero"/></clipPath><clipPath id="2fcd2dcf8d"><path d="M 480 28 L 496.5 28 L 496.5 63 L 480 63 Z M 480 28 " clip-rule="nonzero"/></clipPath><clipPath id="d593653882"><path d="M 460 59 L 496.5 59 L 496.5 92 L 460 92 Z M 460 59 " clip-rule="nonzero"/></clipPath><clipPath id="325fa69f67"><path d="M 250 0.136719 L 288 0.136719 L 288 32 L 250 32 Z M 250 0.136719 " clip-rule="nonzero"/></clipPath><clipPath id="d0f72cd024"><path d="M 292 0.136719 L 330 0.136719 L 330 32 L 292 32 Z M 292 0.136719 " clip-rule="nonzero"/></clipPath><clipPath id="98d74e2c43"><path d="M 334 0.136719 L 372 0.136719 L 372 32 L 334 32 Z M 334 0.136719 " clip-rule="nonzero"/></clipPath><clipPath id="966ce8ca5d"><path d="M 376 0.136719 L 414 0.136719 L 414 32 L 376 32 Z M 376 0.136719 " clip-rule="nonzero"/></clipPath><clipPath id="539944843b"><path d="M 418 0.136719 L 456 0.136719 L 456 32 L 418 32 Z M 418 0.136719 " clip-rule="nonzero"/></clipPath><clipPath id="3248a01e58"><path d="M 460 0.136719 L 496.5 0.136719 L 496.5 32 L 460 32 Z M 460 0.136719 " clip-rule="nonzero"/></clipPath><clipPath id="c52e02bec5"><path d="M 0 89 L 15 89 L 15 123 L 0 123 Z M 0 89 " clip-rule="nonzero"/></clipPath><clipPath id="2334aa6a70"><path d="M 0 119 L 36 119 L 36 152 L 0 152 Z M 0 119 " clip-rule="nonzero"/></clipPath><clipPath id="f5d79cf961"><path d="M 480 89 L 496.5 89 L 496.5 123 L 480 123 Z M 480 89 " clip-rule="nonzero"/></clipPath><clipPath id="9aa95d0f85"><path d="M 460 119 L 496.5 119 L 496.5 152 L 460 152 Z M 460 119 " clip-rule="nonzero"/></clipPath><clipPath id="4e17f6bb2c"><path d="M 103 148 L 142 148 L 142 179.863281 L 103 179.863281 Z M 103 148 " clip-rule="nonzero"/></clipPath><clipPath id="daa1be4e44"><path d="M 187 148 L 226 148 L 226 179.863281 L 187 179.863281 Z M 187 148 " clip-rule="nonzero"/></clipPath><clipPath id="6ed0e78e95"><path d="M 229 148 L 268 148 L 268 179.863281 L 229 179.863281 Z M 229 148 " clip-rule="nonzero"/></clipPath><clipPath id="c5ccb6e633"><path d="M 145 148 L 184 148 L 184 179.863281 L 145 179.863281 Z M 145 148 " clip-rule="nonzero"/></clipPath><clipPath id="868c998670"><path d="M 61 148 L 100 148 L 100 179.863281 L 61 179.863281 Z M 61 148 " clip-rule="nonzero"/></clipPath><clipPath id="ad780ad22b"><path d="M 19 148 L 58 148 L 58 179.863281 L 19 179.863281 Z M 19 148 " clip-rule="nonzero"/></clipPath><clipPath id="3a52479ae2"><path d="M 0 148 L 16 148 L 16 179.863281 L 0 179.863281 Z M 0 148 " clip-rule="nonzero"/></clipPath><clipPath id="d93944f1b7"><path d="M 355 148 L 394 148 L 394 179.863281 L 355 179.863281 Z M 355 148 " clip-rule="nonzero"/></clipPath><clipPath id="e59417c324"><path d="M 439 148 L 478 148 L 478 179.863281 L 439 179.863281 Z M 439 148 " clip-rule="nonzero"/></clipPath><clipPath id="451e883962"><path d="M 481 148 L 496.5 148 L 496.5 179.863281 L 481 179.863281 Z M 481 148 " clip-rule="nonzero"/></clipPath><clipPath id="197dc0b2d3"><path d="M 397 148 L 436 148 L 436 179.863281 L 397 179.863281 Z M 397 148 " clip-rule="nonzero"/></clipPath><clipPath id="f9a66877be"><path d="M 313 148 L 352 148 L 352 179.863281 L 313 179.863281 Z M 313 148 " clip-rule="nonzero"/></clipPath><clipPath id="0d0e53849a"><path d="M 271 148 L 310 148 L 310 179.863281 L 271 179.863281 Z M 271 148 " clip-rule="nonzero"/></clipPath><clipPath id="f033f27418"><rect x="0" width="497" y="0" height="180"/></clipPath></defs><g clip-path="url(#6c5b9925c6)"><g transform="matrix(1, 0, 0, 1, 0, 0.000000000000043215)"><g clip-path="url(#f033f27418)"><g clip-path="url(#c14c48a4dc)"><path fill="#231f20" d="M 35.539062 -0.949219 L 35.539062 15.210938 C 35.539062 19.703125 33.921875 23.496094 30.6875 26.601562 C 28.269531 28.925781 25.546875 30.394531 22.519531 31.007812 C 21.371094 31.210938 20.246094 31.3125 19.140625 31.3125 L 14.902344 31.3125 C 14.328125 31.3125 13.765625 31.285156 13.214844 31.222656 C 12.660156 31.160156 12.097656 31.089844 11.523438 31.007812 C 8.496094 30.394531 5.773438 28.925781 3.355469 26.601562 C 0.164062 23.496094 -1.433594 19.703125 -1.433594 15.210938 L -1.433594 -0.949219 L 5.324219 -0.949219 L 5.324219 15.210938 C 5.324219 17.90625 6.265625 20.191406 8.148438 22.070312 C 9.664062 23.660156 11.503906 24.578125 13.675781 24.824219 L 13.675781 17.660156 L 20.367188 17.660156 L 20.367188 24.824219 C 22.5 24.578125 24.359375 23.660156 25.957031 22.070312 C 27.800781 20.191406 28.722656 17.90625 28.722656 15.210938 L 28.722656 -0.949219 Z M 35.539062 -0.949219 " fill-opacity="1" fill-rule="nonzero"/></g><g clip-path="url(#66e914898e)"><path fill="#231f20" d="M 77.476562 -0.949219 L 77.476562 15.210938 C 77.476562 19.703125 75.859375 23.496094 72.625 26.601562 C 70.210938 28.925781 67.488281 30.394531 64.457031 31.007812 C 63.308594 31.210938 62.183594 31.3125 61.078125 31.3125 L 56.839844 31.3125 C 56.269531 31.3125 55.707031 31.285156 55.152344 31.222656 C 54.601562 31.160156 54.039062 31.089844 53.464844 31.007812 C 50.433594 30.394531 47.710938 28.925781 45.296875 26.601562 C 42.101562 23.496094 40.503906 19.703125 40.503906 15.210938 L 40.503906 -0.949219 L 47.261719 -0.949219 L 47.261719 15.210938 C 47.261719 17.90625 48.203125 20.191406 50.085938 22.070312 C 51.601562 23.660156 53.441406 24.578125 55.613281 24.824219 L 55.613281 17.660156 L 62.308594 17.660156 L 62.308594 24.824219 C 64.4375 24.578125 66.300781 23.660156 67.894531 22.070312 C 69.738281 20.191406 70.660156 17.90625 70.660156 15.210938 L 70.660156 -0.949219 Z M 77.476562 -0.949219 " fill-opacity="1" fill-rule="nonzero"/></g><g clip-path="url(#1544088915)"><path fill="#231f20" d="M 119.414062 -0.949219 L 119.414062 15.210938 C 119.414062 19.703125 117.796875 23.496094 114.5625 26.601562 C 112.144531 28.925781 109.421875 30.394531 106.394531 31.007812 C 105.246094 31.210938 104.121094 31.3125 103.015625 31.3125 L 98.777344 31.3125 C 98.203125 31.3125 97.640625 31.285156 97.089844 31.222656 C 96.535156 31.160156 95.972656 31.089844 95.402344 31.007812 C 92.371094 30.394531 89.648438 28.925781 87.230469 26.601562 C 84.039062 23.496094 82.441406 19.703125 82.441406 15.210938 L 82.441406 -0.949219 L 89.199219 -0.949219 L 89.199219 15.210938 C 89.199219 17.90625 90.140625 20.191406 92.023438 22.070312 C 93.539062 23.660156 95.378906 24.578125 97.550781 24.824219 L 97.550781 17.660156 L 104.242188 17.660156 L 104.242188 24.824219 C 106.375 24.578125 108.234375 23.660156 109.832031 22.070312 C 111.675781 20.191406 112.597656 17.90625 112.597656 15.210938 L 112.597656 -0.949219 Z M 119.414062 -0.949219 " fill-opacity="1" fill-rule="nonzero"/></g><g clip-path="url(#01313ab451)"><path fill="#231f20" d="M 161.351562 -0.949219 L 161.351562 15.210938 C 161.351562 19.703125 159.734375 23.496094 156.5 26.601562 C 154.082031 28.925781 151.359375 30.394531 148.328125 31.007812 C 147.183594 31.210938 146.058594 31.3125 144.953125 31.3125 L 140.714844 31.3125 C 140.140625 31.3125 139.578125 31.285156 139.027344 31.222656 C 138.472656 31.160156 137.910156 31.089844 137.335938 31.007812 C 134.308594 30.394531 131.585938 28.925781 129.167969 26.601562 C 125.976562 23.496094 124.378906 19.703125 124.378906 15.210938 L 124.378906 -0.949219 L 131.132812 -0.949219 L 131.132812 15.210938 C 131.132812 17.90625 132.074219 20.191406 133.960938 22.070312 C 135.472656 23.660156 137.316406 24.578125 139.488281 24.824219 L 139.488281 17.660156 L 146.179688 17.660156 L 146.179688 24.824219 C 148.308594 24.578125 150.171875 23.660156 151.769531 22.070312 C 153.613281 20.191406 154.53125 17.90625 154.53125 15.210938 L 154.53125 -0.949219 Z M 161.351562 -0.949219 " fill-opacity="1" fill-rule="nonzero"/></g><g clip-path="url(#28268c7f18)"><path fill="#231f20" d="M 203.285156 -0.949219 L 203.285156 15.210938 C 203.285156 19.703125 201.667969 23.496094 198.433594 26.601562 C 196.019531 28.925781 193.296875 30.394531 190.265625 31.007812 C 189.121094 31.210938 187.996094 31.3125 186.890625 31.3125 L 182.652344 31.3125 C 182.078125 31.3125 181.515625 31.285156 180.960938 31.222656 C 180.410156 31.160156 179.847656 31.089844 179.273438 31.007812 C 176.242188 30.394531 173.519531 28.925781 171.105469 26.601562 C 167.910156 23.496094 166.316406 19.703125 166.316406 15.210938 L 166.316406 -0.949219 L 173.070312 -0.949219 L 173.070312 15.210938 C 173.070312 17.90625 174.011719 20.191406 175.894531 22.070312 C 177.410156 23.660156 179.253906 24.578125 181.421875 24.824219 L 181.421875 17.660156 L 188.117188 17.660156 L 188.117188 24.824219 C 190.246094 24.578125 192.109375 23.660156 193.707031 22.070312 C 195.546875 20.191406 196.46875 17.90625 196.46875 15.210938 L 196.46875 -0.949219 Z M 203.285156 -0.949219 " fill-opacity="1" fill-rule="nonzero"/></g><g clip-path="url(#26cead84ed)"><path fill="#231f20" d="M 245.222656 -0.949219 L 245.222656 15.210938 C 245.222656 19.703125 243.605469 23.496094 240.371094 26.601562 C 237.957031 28.925781 235.234375 30.394531 232.203125 31.007812 C 231.054688 31.210938 229.929688 31.3125 228.824219 31.3125 L 224.585938 31.3125 C 224.015625 31.3125 223.453125 31.285156 222.898438 31.222656 C 222.347656 31.160156 221.78125 31.089844 221.210938 31.007812 C 218.179688 30.394531 215.457031 28.925781 213.042969 26.601562 C 209.847656 23.496094 208.25 19.703125 208.25 15.210938 L 208.25 -0.949219 L 215.007812 -0.949219 L 215.007812 15.210938 C 215.007812 17.90625 215.949219 20.191406 217.832031 22.070312 C 219.347656 23.660156 221.1875 24.578125 223.359375 24.824219 L 223.359375 17.660156 L 230.054688 17.660156 L 230.054688 24.824219 C 232.183594 24.578125 234.046875 23.660156 235.640625 22.070312 C 237.484375 20.191406 238.40625 17.90625 238.40625 15.210938 L 238.40625 -0.949219 Z M 245.222656 -0.949219 " fill-opacity="1" fill-rule="nonzero"/></g><path fill="#231f20" d="M 102.988281 62.039062 L 102.988281 45.355469 C 102.988281 40.71875 104.644531 36.800781 107.964844 33.601562 C 110.441406 31.199219 113.234375 29.679688 116.34375 29.050781 C 117.519531 28.839844 118.671875 28.734375 119.808594 28.734375 L 124.15625 28.734375 C 124.742188 28.734375 125.320312 28.765625 125.886719 28.828125 C 126.453125 28.890625 127.03125 28.964844 127.621094 29.050781 C 130.726562 29.679688 133.519531 31.199219 136 33.601562 C 139.273438 36.800781 140.914062 40.71875 140.914062 45.355469 L 140.914062 62.039062 L 133.984375 62.039062 L 133.984375 45.355469 C 133.984375 42.574219 133.015625 40.214844 131.085938 38.277344 C 129.53125 36.632812 127.640625 35.6875 125.414062 35.433594 L 125.414062 42.828125 L 118.546875 42.828125 L 118.546875 35.433594 C 116.363281 35.6875 114.453125 36.632812 112.816406 38.277344 C 110.925781 40.214844 109.980469 42.574219 109.980469 45.355469 L 109.980469 62.039062 Z M 102.988281 62.039062 " fill-opacity="1" fill-rule="nonzero"/><path fill="#231f20" d="M 186.972656 62.039062 L 186.972656 45.355469 C 186.972656 40.71875 188.628906 36.800781 191.949219 33.601562 C 194.425781 31.199219 197.21875 29.679688 200.328125 29.050781 C 201.503906 28.839844 202.660156 28.734375 203.792969 28.734375 L 208.140625 28.734375 C 208.726562 28.734375 209.304688 28.765625 209.871094 28.828125 C 210.441406 28.890625 211.015625 28.964844 211.605469 29.050781 C 214.710938 29.679688 217.503906 31.199219 219.984375 33.601562 C 223.261719 36.800781 224.898438 40.71875 224.898438 45.355469 L 224.898438 62.039062 L 217.96875 62.039062 L 217.96875 45.355469 C 217.96875 42.574219 217.003906 40.214844 215.070312 38.277344 C 213.515625 36.632812 211.625 35.6875 209.398438 35.433594 L 209.398438 42.828125 L 202.53125 42.828125 L 202.53125 35.433594 C 200.347656 35.6875 198.4375 36.632812 196.800781 38.277344 C 194.910156 40.214844 193.964844 42.574219 193.964844 45.355469 L 193.964844 62.039062 Z M 186.972656 62.039062 " fill-opacity="1" fill-rule="nonzero"/><path fill="#231f20" d="M 228.964844 62.039062 L 228.964844 45.355469 C 228.964844 40.71875 230.625 36.800781 233.941406 33.601562 C 236.417969 31.199219 239.210938 29.679688 242.320312 29.050781 C 243.496094 28.839844 244.652344 28.734375 245.785156 28.734375 L 250.132812 28.734375 C 250.71875 28.734375 251.296875 28.765625 251.863281 28.828125 C 252.433594 28.890625 253.007812 28.964844 253.597656 29.050781 C 256.707031 29.679688 259.5 31.199219 261.976562 33.601562 C 265.253906 36.800781 266.890625 40.71875 266.890625 45.355469 L 266.890625 62.039062 L 259.960938 62.039062 L 259.960938 45.355469 C 259.960938 42.574219 258.996094 40.214844 257.0625 38.277344 C 255.507812 36.632812 253.617188 35.6875 251.390625 35.433594 L 251.390625 42.828125 L 244.527344 42.828125 L 244.527344 35.433594 C 242.339844 35.6875 240.429688 36.632812 238.792969 38.277344 C 236.902344 40.214844 235.957031 42.574219 235.957031 45.355469 L 235.957031 62.039062 Z M 228.964844 62.039062 " fill-opacity="1" fill-rule="nonzero"/><path fill="#231f20" d="M 144.980469 62.039062 L 144.980469 45.355469 C 144.980469 40.71875 146.636719 36.800781 149.957031 33.601562 C 152.433594 31.199219 155.226562 29.679688 158.335938 29.050781 C 159.511719 28.839844 160.667969 28.734375 161.800781 28.734375 L 166.148438 28.734375 C 166.734375 28.734375 167.3125 28.765625 167.878906 28.828125 C 168.445312 28.890625 169.023438 28.964844 169.613281 29.050781 C 172.71875 29.679688 175.511719 31.199219 177.992188 33.601562 C 181.265625 36.800781 182.90625 40.71875 182.90625 45.355469 L 182.90625 62.039062 L 175.976562 62.039062 L 175.976562 45.355469 C 175.976562 42.574219 175.007812 40.214844 173.078125 38.277344 C 171.523438 36.632812 169.632812 35.6875 167.40625 35.433594 L 167.40625 42.828125 L 160.539062 42.828125 L 160.539062 35.433594 C 158.355469 35.6875 156.445312 36.632812 154.808594 38.277344 C 152.917969 40.214844 151.972656 42.574219 151.972656 45.355469 L 151.972656 62.039062 Z M 144.980469 62.039062 " fill-opacity="1" fill-rule="nonzero"/><path fill="#231f20" d="M 60.992188 62.039062 L 60.992188 45.355469 C 60.992188 40.71875 62.652344 36.800781 65.96875 33.601562 C 68.449219 31.199219 71.242188 29.679688 74.351562 29.050781 C 75.527344 28.839844 76.679688 28.734375 77.816406 28.734375 L 82.160156 28.734375 C 82.75 28.734375 83.328125 28.765625 83.894531 28.828125 C 84.460938 28.890625 85.039062 28.964844 85.625 29.050781 C 88.734375 29.679688 91.527344 31.199219 94.007812 33.601562 C 97.28125 36.800781 98.921875 40.71875 98.921875 45.355469 L 98.921875 62.039062 L 91.988281 62.039062 L 91.988281 45.355469 C 91.988281 42.574219 91.023438 40.214844 89.09375 38.277344 C 87.539062 36.632812 85.648438 35.6875 83.421875 35.433594 L 83.421875 42.828125 L 76.554688 42.828125 L 76.554688 35.433594 C 74.371094 35.6875 72.460938 36.632812 70.820312 38.277344 C 68.933594 40.214844 67.988281 42.574219 67.988281 45.355469 L 67.988281 62.039062 Z M 60.992188 62.039062 " fill-opacity="1" fill-rule="nonzero"/><path fill="#231f20" d="M 19 62.039062 L 19 45.355469 C 19 40.71875 20.660156 36.800781 23.976562 33.601562 C 26.457031 31.199219 29.25 29.679688 32.355469 29.050781 C 33.535156 28.839844 34.6875 28.734375 35.820312 28.734375 L 40.167969 28.734375 C 40.757812 28.734375 41.335938 28.765625 41.902344 28.828125 C 42.46875 28.890625 43.046875 28.964844 43.632812 29.050781 C 46.742188 29.679688 49.535156 31.199219 52.011719 33.601562 C 55.289062 36.800781 56.925781 40.71875 56.925781 45.355469 L 56.925781 62.039062 L 49.996094 62.039062 L 49.996094 45.355469 C 49.996094 42.574219 49.03125 40.214844 47.097656 38.277344 C 45.546875 36.632812 43.65625 35.6875 41.429688 35.433594 L 41.429688 42.828125 L 34.5625 42.828125 L 34.5625 35.433594 C 32.378906 35.6875 30.46875 36.632812 28.828125 38.277344 C 26.9375 40.214844 25.992188 42.574219 25.992188 45.355469 L 25.992188 62.039062 Z M 19 62.039062 " fill-opacity="1" fill-rule="nonzero"/><g clip-path="url(#fe64526f64)"><path fill="#231f20" d="M -22.992188 62.039062 L -22.992188 45.355469 C -22.992188 40.71875 -21.332031 36.800781 -18.015625 33.601562 C -15.535156 31.199219 -12.742188 29.679688 -9.636719 29.050781 C -8.460938 28.839844 -7.304688 28.734375 -6.171875 28.734375 L -1.824219 28.734375 C -1.234375 28.734375 -0.65625 28.765625 -0.0898438 28.828125 C 0.476562 28.890625 1.054688 28.964844 1.640625 29.050781 C 4.75 29.679688 7.542969 31.199219 10.019531 33.601562 C 13.296875 36.800781 14.933594 40.71875 14.933594 45.355469 L 14.933594 62.039062 L 8.003906 62.039062 L 8.003906 45.355469 C 8.003906 42.574219 7.039062 40.214844 5.105469 38.277344 C 3.550781 36.632812 1.664062 35.6875 -0.5625 35.433594 L -0.5625 42.828125 L -7.429688 42.828125 L -7.429688 35.433594 C -9.613281 35.6875 -11.527344 36.632812 -13.164062 38.277344 C -15.054688 40.214844 -16 42.574219 -16 45.355469 L -16 62.039062 Z M -22.992188 62.039062 " fill-opacity="1" fill-rule="nonzero"/></g><g clip-path="url(#b52707966c)"><path fill="#231f20" d="M 35.539062 59.132812 L 35.539062 75.292969 C 35.539062 79.785156 33.921875 83.578125 30.6875 86.679688 C 28.269531 89.007812 25.546875 90.476562 22.519531 91.089844 C 21.371094 91.292969 20.246094 91.394531 19.140625 91.394531 L 14.902344 91.394531 C 14.328125 91.394531 13.765625 91.367188 13.214844 91.304688 C 12.660156 91.242188 12.097656 91.171875 11.523438 91.089844 C 8.496094 90.476562 5.773438 89.007812 3.355469 86.679688 C 0.164062 83.578125 -1.433594 79.785156 -1.433594 75.292969 L -1.433594 59.132812 L 5.324219 59.132812 L 5.324219 75.292969 C 5.324219 77.988281 6.265625 80.273438 8.148438 82.152344 C 9.664062 83.742188 11.503906 84.660156 13.675781 84.90625 L 13.675781 77.742188 L 20.367188 77.742188 L 20.367188 84.90625 C 22.5 84.660156 24.359375 83.742188 25.957031 82.152344 C 27.800781 80.273438 28.722656 77.988281 28.722656 75.292969 L 28.722656 59.132812 Z M 35.539062 59.132812 " fill-opacity="1" fill-rule="nonzero"/></g><path fill="#231f20" d="M 77.476562 59.132812 L 77.476562 75.292969 C 77.476562 79.785156 75.859375 83.578125 72.625 86.679688 C 70.210938 89.007812 67.488281 90.476562 64.457031 91.089844 C 63.308594 91.292969 62.183594 91.394531 61.078125 91.394531 L 56.839844 91.394531 C 56.269531 91.394531 55.707031 91.367188 55.152344 91.304688 C 54.601562 91.242188 54.039062 91.171875 53.464844 91.089844 C 50.433594 90.476562 47.710938 89.007812 45.296875 86.679688 C 42.101562 83.578125 40.503906 79.785156 40.503906 75.292969 L 40.503906 59.132812 L 47.261719 59.132812 L 47.261719 75.292969 C 47.261719 77.988281 48.203125 80.273438 50.085938 82.152344 C 51.601562 83.742188 53.441406 84.660156 55.613281 84.90625 L 55.613281 77.742188 L 62.308594 77.742188 L 62.308594 84.90625 C 64.4375 84.660156 66.300781 83.742188 67.894531 82.152344 C 69.738281 80.273438 70.660156 77.988281 70.660156 75.292969 L 70.660156 59.132812 Z M 77.476562 59.132812 " fill-opacity="1" fill-rule="nonzero"/><path fill="#231f20" d="M 119.414062 59.132812 L 119.414062 75.292969 C 119.414062 79.785156 117.796875 83.578125 114.5625 86.679688 C 112.144531 89.007812 109.421875 90.476562 106.394531 91.089844 C 105.246094 91.292969 104.121094 91.394531 103.015625 91.394531 L 98.777344 91.394531 C 98.203125 91.394531 97.640625 91.367188 97.089844 91.304688 C 96.535156 91.242188 95.972656 91.171875 95.402344 91.089844 C 92.371094 90.476562 89.648438 89.007812 87.230469 86.679688 C 84.039062 83.578125 82.441406 79.785156 82.441406 75.292969 L 82.441406 59.132812 L 89.199219 59.132812 L 89.199219 75.292969 C 89.199219 77.988281 90.140625 80.273438 92.023438 82.152344 C 93.539062 83.742188 95.378906 84.660156 97.550781 84.90625 L 97.550781 77.742188 L 104.242188 77.742188 L 104.242188 84.90625 C 106.375 84.660156 108.234375 83.742188 109.832031 82.152344 C 111.675781 80.273438 112.597656 77.988281 112.597656 75.292969 L 112.597656 59.132812 Z M 119.414062 59.132812 " fill-opacity="1" fill-rule="nonzero"/><path fill="#231f20" d="M 161.351562 59.132812 L 161.351562 75.292969 C 161.351562 79.785156 159.734375 83.578125 156.5 86.679688 C 154.082031 89.007812 151.359375 90.476562 148.328125 91.089844 C 147.183594 91.292969 146.058594 91.394531 144.953125 91.394531 L 140.714844 91.394531 C 140.140625 91.394531 139.578125 91.367188 139.027344 91.304688 C 138.472656 91.242188 137.910156 91.171875 137.335938 91.089844 C 134.308594 90.476562 131.585938 89.007812 129.167969 86.679688 C 125.976562 83.578125 124.378906 79.785156 124.378906 75.292969 L 124.378906 59.132812 L 131.132812 59.132812 L 131.132812 75.292969 C 131.132812 77.988281 132.074219 80.273438 133.960938 82.152344 C 135.472656 83.742188 137.316406 84.660156 139.488281 84.90625 L 139.488281 77.742188 L 146.179688 77.742188 L 146.179688 84.90625 C 148.308594 84.660156 150.171875 83.742188 151.769531 82.152344 C 153.613281 80.273438 154.53125 77.988281 154.53125 75.292969 L 154.53125 59.132812 Z M 161.351562 59.132812 " fill-opacity="1" fill-rule="nonzero"/><path fill="#231f20" d="M 203.285156 59.132812 L 203.285156 75.292969 C 203.285156 79.785156 201.667969 83.578125 198.433594 86.679688 C 196.019531 89.007812 193.296875 90.476562 190.265625 91.089844 C 189.121094 91.292969 187.996094 91.394531 186.890625 91.394531 L 182.652344 91.394531 C 182.078125 91.394531 181.515625 91.367188 180.960938 91.304688 C 180.410156 91.242188 179.847656 91.171875 179.273438 91.089844 C 176.242188 90.476562 173.519531 89.007812 171.105469 86.679688 C 167.910156 83.578125 166.316406 79.785156 166.316406 75.292969 L 166.316406 59.132812 L 173.070312 59.132812 L 173.070312 75.292969 C 173.070312 77.988281 174.011719 80.273438 175.894531 82.152344 C 177.410156 83.742188 179.253906 84.660156 181.421875 84.90625 L 181.421875 77.742188 L 188.117188 77.742188 L 188.117188 84.90625 C 190.246094 84.660156 192.109375 83.742188 193.707031 82.152344 C 195.546875 80.273438 196.46875 77.988281 196.46875 75.292969 L 196.46875 59.132812 Z M 203.285156 59.132812 " fill-opacity="1" fill-rule="nonzero"/><path fill="#231f20" d="M 245.222656 59.132812 L 245.222656 75.292969 C 245.222656 79.785156 243.605469 83.578125 240.371094 86.679688 C 237.957031 89.007812 235.234375 90.476562 232.203125 91.089844 C 231.054688 91.292969 229.929688 91.394531 228.824219 91.394531 L 224.585938 91.394531 C 224.015625 91.394531 223.453125 91.367188 222.898438 91.304688 C 222.347656 91.242188 221.78125 91.171875 221.210938 91.089844 C 218.179688 90.476562 215.457031 89.007812 213.042969 86.679688 C 209.847656 83.578125 208.25 79.785156 208.25 75.292969 L 208.25 59.132812 L 215.007812 59.132812 L 215.007812 75.292969 C 215.007812 77.988281 215.949219 80.273438 217.832031 82.152344 C 219.347656 83.742188 221.1875 84.660156 223.359375 84.90625 L 223.359375 77.742188 L 230.054688 77.742188 L 230.054688 84.90625 C 232.183594 84.660156 234.046875 83.742188 235.640625 82.152344 C 237.484375 80.273438 238.40625 77.988281 238.40625 75.292969 L 238.40625 59.132812 Z M 245.222656 59.132812 " fill-opacity="1" fill-rule="nonzero"/><path fill="#231f20" d="M 354.941406 62.039062 L 354.941406 45.355469 C 354.941406 40.71875 356.601562 36.800781 359.917969 33.601562 C 362.398438 31.199219 365.191406 29.679688 368.296875 29.050781 C 369.472656 28.839844 370.628906 28.734375 371.761719 28.734375 L 376.109375 28.734375 C 376.699219 28.734375 377.277344 28.765625 377.84375 28.828125 C 378.410156 28.890625 378.988281 28.964844 379.574219 29.050781 C 382.683594 29.679688 385.476562 31.199219 387.953125 33.601562 C 391.230469 36.800781 392.867188 40.71875 392.867188 45.355469 L 392.867188 62.039062 L 385.9375 62.039062 L 385.9375 45.355469 C 385.9375 42.574219 384.972656 40.214844 383.039062 38.277344 C 381.484375 36.632812 379.597656 35.6875 377.371094 35.433594 L 377.371094 42.828125 L 370.503906 42.828125 L 370.503906 35.433594 C 368.320312 35.6875 366.40625 36.632812 364.769531 38.277344 C 362.878906 40.214844 361.933594 42.574219 361.933594 45.355469 L 361.933594 62.039062 Z M 354.941406 62.039062 " fill-opacity="1" fill-rule="nonzero"/><path fill="#231f20" d="M 438.925781 62.039062 L 438.925781 45.355469 C 438.925781 40.71875 440.585938 36.800781 443.902344 33.601562 C 446.382812 31.199219 449.175781 29.679688 452.285156 29.050781 C 453.460938 28.839844 454.613281 28.734375 455.75 28.734375 L 460.09375 28.734375 C 460.683594 28.734375 461.261719 28.765625 461.828125 28.828125 C 462.394531 28.890625 462.972656 28.964844 463.558594 29.050781 C 466.667969 29.679688 469.460938 31.199219 471.941406 33.601562 C 475.214844 36.800781 476.851562 40.71875 476.851562 45.355469 L 476.851562 62.039062 L 469.921875 62.039062 L 469.921875 45.355469 C 469.921875 42.574219 468.957031 40.214844 467.023438 38.277344 C 465.472656 36.632812 463.582031 35.6875 461.355469 35.433594 L 461.355469 42.828125 L 454.488281 42.828125 L 454.488281 35.433594 C 452.304688 35.6875 450.394531 36.632812 448.753906 38.277344 C 446.867188 40.214844 445.921875 42.574219 445.921875 45.355469 L 445.921875 62.039062 Z M 438.925781 62.039062 " fill-opacity="1" fill-rule="nonzero"/><g clip-path="url(#2fcd2dcf8d)"><path fill="#231f20" d="M 480.921875 62.039062 L 480.921875 45.355469 C 480.921875 40.71875 482.582031 36.800781 485.898438 33.601562 C 488.375 31.199219 491.167969 29.679688 494.277344 29.050781 C 495.453125 28.839844 496.609375 28.734375 497.742188 28.734375 L 502.089844 28.734375 C 502.675781 28.734375 503.253906 28.765625 503.820312 28.828125 C 504.390625 28.890625 504.964844 28.964844 505.554688 29.050781 C 508.664062 29.679688 511.457031 31.199219 513.933594 33.601562 C 517.210938 36.800781 518.847656 40.71875 518.847656 45.355469 L 518.847656 62.039062 L 511.917969 62.039062 L 511.917969 45.355469 C 511.917969 42.574219 510.953125 40.214844 509.019531 38.277344 C 507.464844 36.632812 505.574219 35.6875 503.347656 35.433594 L 503.347656 42.828125 L 496.480469 42.828125 L 496.480469 35.433594 C 494.296875 35.6875 492.386719 36.632812 490.75 38.277344 C 488.859375 40.214844 487.914062 42.574219 487.914062 45.355469 L 487.914062 62.039062 Z M 480.921875 62.039062 " fill-opacity="1" fill-rule="nonzero"/></g><path fill="#231f20" d="M 396.933594 62.039062 L 396.933594 45.355469 C 396.933594 40.71875 398.59375 36.800781 401.910156 33.601562 C 404.390625 31.199219 407.183594 29.679688 410.289062 29.050781 C 411.46875 28.839844 412.621094 28.734375 413.753906 28.734375 L 418.101562 28.734375 C 418.691406 28.734375 419.269531 28.765625 419.835938 28.828125 C 420.402344 28.890625 420.980469 28.964844 421.566406 29.050781 C 424.675781 29.679688 427.46875 31.199219 429.945312 33.601562 C 433.222656 36.800781 434.859375 40.71875 434.859375 45.355469 L 434.859375 62.039062 L 427.929688 62.039062 L 427.929688 45.355469 C 427.929688 42.574219 426.964844 40.214844 425.03125 38.277344 C 423.480469 36.632812 421.589844 35.6875 419.363281 35.433594 L 419.363281 42.828125 L 412.496094 42.828125 L 412.496094 35.433594 C 410.3125 35.6875 408.402344 36.632812 406.761719 38.277344 C 404.871094 40.214844 403.925781 42.574219 403.925781 45.355469 L 403.925781 62.039062 Z M 396.933594 62.039062 " fill-opacity="1" fill-rule="nonzero"/><path fill="#231f20" d="M 312.949219 62.039062 L 312.949219 45.355469 C 312.949219 40.71875 314.609375 36.800781 317.925781 33.601562 C 320.40625 31.199219 323.199219 29.679688 326.304688 29.050781 C 327.480469 28.839844 328.636719 28.734375 329.769531 28.734375 L 334.117188 28.734375 C 334.707031 28.734375 335.285156 28.765625 335.851562 28.828125 C 336.417969 28.890625 336.996094 28.964844 337.582031 29.050781 C 340.691406 29.679688 343.484375 31.199219 345.960938 33.601562 C 349.238281 36.800781 350.875 40.71875 350.875 45.355469 L 350.875 62.039062 L 343.945312 62.039062 L 343.945312 45.355469 C 343.945312 42.574219 342.980469 40.214844 341.046875 38.277344 C 339.492188 36.632812 337.605469 35.6875 335.378906 35.433594 L 335.378906 42.828125 L 328.511719 42.828125 L 328.511719 35.433594 C 326.328125 35.6875 324.414062 36.632812 322.777344 38.277344 C 320.886719 40.214844 319.941406 42.574219 319.941406 45.355469 L 319.941406 62.039062 Z M 312.949219 62.039062 " fill-opacity="1" fill-rule="nonzero"/><path fill="#231f20" d="M 270.957031 62.039062 L 270.957031 45.355469 C 270.957031 40.71875 272.617188 36.800781 275.933594 33.601562 C 278.410156 31.199219 281.203125 29.679688 284.3125 29.050781 C 285.488281 28.839844 286.644531 28.734375 287.777344 28.734375 L 292.125 28.734375 C 292.714844 28.734375 293.289062 28.765625 293.859375 28.828125 C 294.425781 28.890625 295 28.964844 295.589844 29.050781 C 298.699219 29.679688 301.492188 31.199219 303.96875 33.601562 C 307.246094 36.800781 308.882812 40.71875 308.882812 45.355469 L 308.882812 62.039062 L 301.953125 62.039062 L 301.953125 45.355469 C 301.953125 42.574219 300.988281 40.214844 299.054688 38.277344 C 297.5 36.632812 295.609375 35.6875 293.386719 35.433594 L 293.386719 42.828125 L 286.519531 42.828125 L 286.519531 35.433594 C 284.332031 35.6875 282.421875 36.632812 280.785156 38.277344 C 278.894531 40.214844 277.949219 42.574219 277.949219 45.355469 L 277.949219 62.039062 Z M 270.957031 62.039062 " fill-opacity="1" fill-rule="nonzero"/><path fill="#231f20" d="M 287.578125 59.132812 L 287.578125 75.292969 C 287.578125 79.785156 285.960938 83.578125 282.726562 86.679688 C 280.3125 89.007812 277.589844 90.476562 274.558594 91.089844 C 273.410156 91.292969 272.285156 91.394531 271.179688 91.394531 L 266.941406 91.394531 C 266.371094 91.394531 265.808594 91.367188 265.253906 91.304688 C 264.703125 91.242188 264.136719 91.171875 263.566406 91.089844 C 260.535156 90.476562 257.8125 89.007812 255.398438 86.679688 C 252.203125 83.578125 250.605469 79.785156 250.605469 75.292969 L 250.605469 59.132812 L 257.363281 59.132812 L 257.363281 75.292969 C 257.363281 77.988281 258.304688 80.273438 260.1875 82.152344 C 261.703125 83.742188 263.542969 84.660156 265.714844 84.90625 L 265.714844 77.742188 L 272.410156 77.742188 L 272.410156 84.90625 C 274.539062 84.660156 276.402344 83.742188 277.996094 82.152344 C 279.839844 80.273438 280.761719 77.988281 280.761719 75.292969 L 280.761719 59.132812 Z M 287.578125 59.132812 " fill-opacity="1" fill-rule="nonzero"/><path fill="#231f20" d="M 329.515625 59.132812 L 329.515625 75.292969 C 329.515625 79.785156 327.898438 83.578125 324.664062 86.679688 C 322.246094 89.007812 319.523438 90.476562 316.496094 91.089844 C 315.347656 91.292969 314.222656 91.394531 313.117188 91.394531 L 308.878906 91.394531 C 308.304688 91.394531 307.742188 91.367188 307.191406 91.304688 C 306.636719 91.242188 306.074219 91.171875 305.5 91.089844 C 302.472656 90.476562 299.75 89.007812 297.332031 86.679688 C 294.140625 83.578125 292.542969 79.785156 292.542969 75.292969 L 292.542969 59.132812 L 299.300781 59.132812 L 299.300781 75.292969 C 299.300781 77.988281 300.242188 80.273438 302.125 82.152344 C 303.640625 83.742188 305.480469 84.660156 307.652344 84.90625 L 307.652344 77.742188 L 314.34375 77.742188 L 314.34375 84.90625 C 316.472656 84.660156 318.335938 83.742188 319.933594 82.152344 C 321.777344 80.273438 322.699219 77.988281 322.699219 75.292969 L 322.699219 59.132812 Z M 329.515625 59.132812 " fill-opacity="1" fill-rule="nonzero"/><path fill="#231f20" d="M 371.449219 59.132812 L 371.449219 75.292969 C 371.449219 79.785156 369.832031 83.578125 366.601562 86.679688 C 364.183594 89.007812 361.460938 90.476562 358.429688 91.089844 C 357.285156 91.292969 356.160156 91.394531 355.054688 91.394531 L 350.816406 91.394531 C 350.242188 91.394531 349.679688 91.367188 349.128906 91.304688 C 348.574219 91.242188 348.011719 91.171875 347.4375 91.089844 C 344.410156 90.476562 341.6875 89.007812 339.269531 86.679688 C 336.078125 83.578125 334.480469 79.785156 334.480469 75.292969 L 334.480469 59.132812 L 341.234375 59.132812 L 341.234375 75.292969 C 341.234375 77.988281 342.175781 80.273438 344.0625 82.152344 C 345.574219 83.742188 347.417969 84.660156 349.585938 84.90625 L 349.585938 77.742188 L 356.28125 77.742188 L 356.28125 84.90625 C 358.410156 84.660156 360.273438 83.742188 361.871094 82.152344 C 363.714844 80.273438 364.632812 77.988281 364.632812 75.292969 L 364.632812 59.132812 Z M 371.449219 59.132812 " fill-opacity="1" fill-rule="nonzero"/><path fill="#231f20" d="M 413.386719 59.132812 L 413.386719 75.292969 C 413.386719 79.785156 411.769531 83.578125 408.535156 86.679688 C 406.121094 89.007812 403.398438 90.476562 400.367188 91.089844 C 399.222656 91.292969 398.09375 91.394531 396.988281 91.394531 L 392.753906 91.394531 C 392.179688 91.394531 391.617188 91.367188 391.0625 91.304688 C 390.511719 91.242188 389.949219 91.171875 389.375 91.089844 C 386.34375 90.476562 383.621094 89.007812 381.207031 86.679688 C 378.011719 83.578125 376.417969 79.785156 376.417969 75.292969 L 376.417969 59.132812 L 383.171875 59.132812 L 383.171875 75.292969 C 383.171875 77.988281 384.113281 80.273438 385.996094 82.152344 C 387.511719 83.742188 389.355469 84.660156 391.523438 84.90625 L 391.523438 77.742188 L 398.21875 77.742188 L 398.21875 84.90625 C 400.347656 84.660156 402.210938 83.742188 403.808594 82.152344 C 405.648438 80.273438 406.570312 77.988281 406.570312 75.292969 L 406.570312 59.132812 Z M 413.386719 59.132812 " fill-opacity="1" fill-rule="nonzero"/><path fill="#231f20" d="M 455.324219 59.132812 L 455.324219 75.292969 C 455.324219 79.785156 453.707031 83.578125 450.472656 86.679688 C 448.058594 89.007812 445.332031 90.476562 442.304688 91.089844 C 441.15625 91.292969 440.03125 91.394531 438.925781 91.394531 L 434.6875 91.394531 C 434.117188 91.394531 433.550781 91.367188 433 91.304688 C 432.445312 91.242188 431.882812 91.171875 431.3125 91.089844 C 428.28125 90.476562 425.558594 89.007812 423.144531 86.679688 C 419.949219 83.578125 418.351562 79.785156 418.351562 75.292969 L 418.351562 59.132812 L 425.109375 59.132812 L 425.109375 75.292969 C 425.109375 77.988281 426.050781 80.273438 427.933594 82.152344 C 429.449219 83.742188 431.289062 84.660156 433.460938 84.90625 L 433.460938 77.742188 L 440.15625 77.742188 L 440.15625 84.90625 C 442.285156 84.660156 444.148438 83.742188 445.742188 82.152344 C 447.585938 80.273438 448.507812 77.988281 448.507812 75.292969 L 448.507812 59.132812 Z M 455.324219 59.132812 " fill-opacity="1" fill-rule="nonzero"/><g clip-path="url(#d593653882)"><path fill="#231f20" d="M 497.261719 59.132812 L 497.261719 75.292969 C 497.261719 79.785156 495.644531 83.578125 492.410156 86.679688 C 489.992188 89.007812 487.269531 90.476562 484.242188 91.089844 C 483.09375 91.292969 481.96875 91.394531 480.863281 91.394531 L 476.625 91.394531 C 476.050781 91.394531 475.488281 91.367188 474.9375 91.304688 C 474.382812 91.242188 473.820312 91.171875 473.246094 91.089844 C 470.21875 90.476562 467.496094 89.007812 465.078125 86.679688 C 461.886719 83.578125 460.289062 79.785156 460.289062 75.292969 L 460.289062 59.132812 L 467.042969 59.132812 L 467.042969 75.292969 C 467.042969 77.988281 467.988281 80.273438 469.871094 82.152344 C 471.386719 83.742188 473.226562 84.660156 475.398438 84.90625 L 475.398438 77.742188 L 482.089844 77.742188 L 482.089844 84.90625 C 484.21875 84.660156 486.082031 83.742188 487.679688 82.152344 C 489.523438 80.273438 490.445312 77.988281 490.445312 75.292969 L 490.445312 59.132812 Z M 497.261719 59.132812 " fill-opacity="1" fill-rule="nonzero"/></g><g clip-path="url(#325fa69f67)"><path fill="#231f20" d="M 287.496094 -0.949219 L 287.496094 15.210938 C 287.496094 19.703125 285.878906 23.496094 282.644531 26.601562 C 280.230469 28.925781 277.507812 30.394531 274.476562 31.007812 C 273.328125 31.210938 272.203125 31.3125 271.097656 31.3125 L 266.859375 31.3125 C 266.289062 31.3125 265.726562 31.285156 265.171875 31.222656 C 264.621094 31.160156 264.054688 31.089844 263.484375 31.007812 C 260.453125 30.394531 257.730469 28.925781 255.316406 26.601562 C 252.121094 23.496094 250.523438 19.703125 250.523438 15.210938 L 250.523438 -0.949219 L 257.28125 -0.949219 L 257.28125 15.210938 C 257.28125 17.90625 258.222656 20.191406 260.105469 22.070312 C 261.621094 23.660156 263.460938 24.578125 265.632812 24.824219 L 265.632812 17.660156 L 272.328125 17.660156 L 272.328125 24.824219 C 274.457031 24.578125 276.320312 23.660156 277.914062 22.070312 C 279.757812 20.191406 280.679688 17.90625 280.679688 15.210938 L 280.679688 -0.949219 Z M 287.496094 -0.949219 " fill-opacity="1" fill-rule="nonzero"/></g><g clip-path="url(#d0f72cd024)"><path fill="#231f20" d="M 329.433594 -0.949219 L 329.433594 15.210938 C 329.433594 19.703125 327.816406 23.496094 324.582031 26.601562 C 322.164062 28.925781 319.441406 30.394531 316.414062 31.007812 C 315.265625 31.210938 314.140625 31.3125 313.035156 31.3125 L 308.796875 31.3125 C 308.222656 31.3125 307.660156 31.285156 307.109375 31.222656 C 306.554688 31.160156 305.992188 31.089844 305.417969 31.007812 C 302.390625 30.394531 299.667969 28.925781 297.25 26.601562 C 294.058594 23.496094 292.460938 19.703125 292.460938 15.210938 L 292.460938 -0.949219 L 299.21875 -0.949219 L 299.21875 15.210938 C 299.21875 17.90625 300.160156 20.191406 302.042969 22.070312 C 303.558594 23.660156 305.398438 24.578125 307.570312 24.824219 L 307.570312 17.660156 L 314.261719 17.660156 L 314.261719 24.824219 C 316.390625 24.578125 318.253906 23.660156 319.851562 22.070312 C 321.695312 20.191406 322.617188 17.90625 322.617188 15.210938 L 322.617188 -0.949219 Z M 329.433594 -0.949219 " fill-opacity="1" fill-rule="nonzero"/></g><g clip-path="url(#98d74e2c43)"><path fill="#231f20" d="M 371.367188 -0.949219 L 371.367188 15.210938 C 371.367188 19.703125 369.75 23.496094 366.515625 26.601562 C 364.101562 28.925781 361.378906 30.394531 358.347656 31.007812 C 357.203125 31.210938 356.078125 31.3125 354.972656 31.3125 L 350.734375 31.3125 C 350.160156 31.3125 349.597656 31.285156 349.046875 31.222656 C 348.492188 31.160156 347.929688 31.089844 347.355469 31.007812 C 344.328125 30.394531 341.605469 28.925781 339.1875 26.601562 C 335.996094 23.496094 334.398438 19.703125 334.398438 15.210938 L 334.398438 -0.949219 L 341.152344 -0.949219 L 341.152344 15.210938 C 341.152344 17.90625 342.09375 20.191406 343.980469 22.070312 C 345.492188 23.660156 347.335938 24.578125 349.503906 24.824219 L 349.503906 17.660156 L 356.199219 17.660156 L 356.199219 24.824219 C 358.328125 24.578125 360.191406 23.660156 361.789062 22.070312 C 363.632812 20.191406 364.550781 17.90625 364.550781 15.210938 L 364.550781 -0.949219 Z M 371.367188 -0.949219 " fill-opacity="1" fill-rule="nonzero"/></g><g clip-path="url(#966ce8ca5d)"><path fill="#231f20" d="M 413.304688 -0.949219 L 413.304688 15.210938 C 413.304688 19.703125 411.6875 23.496094 408.453125 26.601562 C 406.039062 28.925781 403.316406 30.394531 400.285156 31.007812 C 399.140625 31.210938 398.011719 31.3125 396.90625 31.3125 L 392.671875 31.3125 C 392.097656 31.3125 391.535156 31.285156 390.980469 31.222656 C 390.429688 31.160156 389.867188 31.089844 389.292969 31.007812 C 386.261719 30.394531 383.539062 28.925781 381.125 26.601562 C 377.929688 23.496094 376.335938 19.703125 376.335938 15.210938 L 376.335938 -0.949219 L 383.089844 -0.949219 L 383.089844 15.210938 C 383.089844 17.90625 384.03125 20.191406 385.914062 22.070312 C 387.429688 23.660156 389.273438 24.578125 391.441406 24.824219 L 391.441406 17.660156 L 398.136719 17.660156 L 398.136719 24.824219 C 400.265625 24.578125 402.128906 23.660156 403.726562 22.070312 C 405.566406 20.191406 406.488281 17.90625 406.488281 15.210938 L 406.488281 -0.949219 Z M 413.304688 -0.949219 " fill-opacity="1" fill-rule="nonzero"/></g><g clip-path="url(#539944843b)"><path fill="#231f20" d="M 455.242188 -0.949219 L 455.242188 15.210938 C 455.242188 19.703125 453.625 23.496094 450.390625 26.601562 C 447.976562 28.925781 445.25 30.394531 442.222656 31.007812 C 441.074219 31.210938 439.949219 31.3125 438.84375 31.3125 L 434.605469 31.3125 C 434.035156 31.3125 433.46875 31.285156 432.917969 31.222656 C 432.363281 31.160156 431.800781 31.089844 431.230469 31.007812 C 428.199219 30.394531 425.476562 28.925781 423.0625 26.601562 C 419.867188 23.496094 418.269531 19.703125 418.269531 15.210938 L 418.269531 -0.949219 L 425.027344 -0.949219 L 425.027344 15.210938 C 425.027344 17.90625 425.96875 20.191406 427.851562 22.070312 C 429.367188 23.660156 431.207031 24.578125 433.378906 24.824219 L 433.378906 17.660156 L 440.074219 17.660156 L 440.074219 24.824219 C 442.203125 24.578125 444.066406 23.660156 445.660156 22.070312 C 447.503906 20.191406 448.425781 17.90625 448.425781 15.210938 L 448.425781 -0.949219 Z M 455.242188 -0.949219 " fill-opacity="1" fill-rule="nonzero"/></g><g clip-path="url(#3248a01e58)"><path fill="#231f20" d="M 497.179688 -0.949219 L 497.179688 15.210938 C 497.179688 19.703125 495.5625 23.496094 492.328125 26.601562 C 489.910156 28.925781 487.1875 30.394531 484.160156 31.007812 C 483.011719 31.210938 481.886719 31.3125 480.78125 31.3125 L 476.542969 31.3125 C 475.96875 31.3125 475.40625 31.285156 474.855469 31.222656 C 474.300781 31.160156 473.738281 31.089844 473.164062 31.007812 C 470.136719 30.394531 467.414062 28.925781 464.996094 26.601562 C 461.804688 23.496094 460.207031 19.703125 460.207031 15.210938 L 460.207031 -0.949219 L 466.960938 -0.949219 L 466.960938 15.210938 C 466.960938 17.90625 467.90625 20.191406 469.789062 22.070312 C 471.304688 23.660156 473.144531 24.578125 475.316406 24.824219 L 475.316406 17.660156 L 482.007812 17.660156 L 482.007812 24.824219 C 484.136719 24.578125 486 23.660156 487.597656 22.070312 C 489.441406 20.191406 490.363281 17.90625 490.363281 15.210938 L 490.363281 -0.949219 Z M 497.179688 -0.949219 " fill-opacity="1" fill-rule="nonzero"/></g><path fill="#231f20" d="M 102.988281 122.527344 L 102.988281 105.84375 C 102.988281 101.210938 104.644531 97.292969 107.964844 94.089844 C 110.441406 91.6875 113.234375 90.171875 116.34375 89.539062 C 117.519531 89.328125 118.671875 89.222656 119.808594 89.222656 L 124.15625 89.222656 C 124.742188 89.222656 125.320312 89.253906 125.886719 89.320312 C 126.453125 89.382812 127.03125 89.457031 127.621094 89.539062 C 130.726562 90.171875 133.519531 91.6875 136 94.089844 C 139.273438 97.292969 140.914062 101.210938 140.914062 105.84375 L 140.914062 122.527344 L 133.984375 122.527344 L 133.984375 105.84375 C 133.984375 103.0625 133.015625 100.703125 131.085938 98.765625 C 129.53125 97.125 127.640625 96.175781 125.414062 95.921875 L 125.414062 103.316406 L 118.546875 103.316406 L 118.546875 95.921875 C 116.363281 96.175781 114.453125 97.125 112.816406 98.765625 C 110.925781 100.703125 109.980469 103.0625 109.980469 105.84375 L 109.980469 122.527344 Z M 102.988281 122.527344 " fill-opacity="1" fill-rule="nonzero"/><path fill="#231f20" d="M 186.972656 122.527344 L 186.972656 105.84375 C 186.972656 101.210938 188.628906 97.292969 191.949219 94.089844 C 194.425781 91.6875 197.21875 90.171875 200.328125 89.539062 C 201.503906 89.328125 202.660156 89.222656 203.792969 89.222656 L 208.140625 89.222656 C 208.726562 89.222656 209.304688 89.253906 209.871094 89.320312 C 210.441406 89.382812 211.015625 89.457031 211.605469 89.539062 C 214.710938 90.171875 217.503906 91.6875 219.984375 94.089844 C 223.261719 97.292969 224.898438 101.210938 224.898438 105.84375 L 224.898438 122.527344 L 217.96875 122.527344 L 217.96875 105.84375 C 217.96875 103.0625 217.003906 100.703125 215.070312 98.765625 C 213.515625 97.125 211.625 96.175781 209.398438 95.921875 L 209.398438 103.316406 L 202.53125 103.316406 L 202.53125 95.921875 C 200.347656 96.175781 198.4375 97.125 196.800781 98.765625 C 194.910156 100.703125 193.964844 103.0625 193.964844 105.84375 L 193.964844 122.527344 Z M 186.972656 122.527344 " fill-opacity="1" fill-rule="nonzero"/><path fill="#231f20" d="M 228.964844 122.527344 L 228.964844 105.84375 C 228.964844 101.210938 230.625 97.292969 233.941406 94.089844 C 236.417969 91.6875 239.210938 90.171875 242.320312 89.539062 C 243.496094 89.328125 244.652344 89.222656 245.785156 89.222656 L 250.132812 89.222656 C 250.71875 89.222656 251.296875 89.253906 251.863281 89.320312 C 252.433594 89.382812 253.007812 89.457031 253.597656 89.539062 C 256.707031 90.171875 259.5 91.6875 261.976562 94.089844 C 265.253906 97.292969 266.890625 101.210938 266.890625 105.84375 L 266.890625 122.527344 L 259.960938 122.527344 L 259.960938 105.84375 C 259.960938 103.0625 258.996094 100.703125 257.0625 98.765625 C 255.507812 97.125 253.617188 96.175781 251.390625 95.921875 L 251.390625 103.316406 L 244.527344 103.316406 L 244.527344 95.921875 C 242.339844 96.175781 240.429688 97.125 238.792969 98.765625 C 236.902344 100.703125 235.957031 103.0625 235.957031 105.84375 L 235.957031 122.527344 Z M 228.964844 122.527344 " fill-opacity="1" fill-rule="nonzero"/><path fill="#231f20" d="M 144.980469 122.527344 L 144.980469 105.84375 C 144.980469 101.210938 146.636719 97.292969 149.957031 94.089844 C 152.433594 91.6875 155.226562 90.171875 158.335938 89.539062 C 159.511719 89.328125 160.667969 89.222656 161.800781 89.222656 L 166.148438 89.222656 C 166.734375 89.222656 167.3125 89.253906 167.878906 89.320312 C 168.445312 89.382812 169.023438 89.457031 169.613281 89.539062 C 172.71875 90.171875 175.511719 91.6875 177.992188 94.089844 C 181.265625 97.292969 182.90625 101.210938 182.90625 105.84375 L 182.90625 122.527344 L 175.976562 122.527344 L 175.976562 105.84375 C 175.976562 103.0625 175.007812 100.703125 173.078125 98.765625 C 171.523438 97.125 169.632812 96.175781 167.40625 95.921875 L 167.40625 103.316406 L 160.539062 103.316406 L 160.539062 95.921875 C 158.355469 96.175781 156.445312 97.125 154.808594 98.765625 C 152.917969 100.703125 151.972656 103.0625 151.972656 105.84375 L 151.972656 122.527344 Z M 144.980469 122.527344 " fill-opacity="1" fill-rule="nonzero"/><path fill="#231f20" d="M 60.992188 122.527344 L 60.992188 105.84375 C 60.992188 101.210938 62.652344 97.292969 65.96875 94.089844 C 68.449219 91.6875 71.242188 90.171875 74.351562 89.539062 C 75.527344 89.328125 76.679688 89.222656 77.816406 89.222656 L 82.160156 89.222656 C 82.75 89.222656 83.328125 89.253906 83.894531 89.320312 C 84.460938 89.382812 85.039062 89.457031 85.625 89.539062 C 88.734375 90.171875 91.527344 91.6875 94.007812 94.089844 C 97.28125 97.292969 98.921875 101.210938 98.921875 105.84375 L 98.921875 122.527344 L 91.988281 122.527344 L 91.988281 105.84375 C 91.988281 103.0625 91.023438 100.703125 89.09375 98.765625 C 87.539062 97.125 85.648438 96.175781 83.421875 95.921875 L 83.421875 103.316406 L 76.554688 103.316406 L 76.554688 95.921875 C 74.371094 96.175781 72.460938 97.125 70.820312 98.765625 C 68.933594 100.703125 67.988281 103.0625 67.988281 105.84375 L 67.988281 122.527344 Z M 60.992188 122.527344 " fill-opacity="1" fill-rule="nonzero"/><path fill="#231f20" d="M 19 122.527344 L 19 105.84375 C 19 101.210938 20.660156 97.292969 23.976562 94.089844 C 26.457031 91.6875 29.25 90.171875 32.355469 89.539062 C 33.535156 89.328125 34.6875 89.222656 35.820312 89.222656 L 40.167969 89.222656 C 40.757812 89.222656 41.335938 89.253906 41.902344 89.320312 C 42.46875 89.382812 43.046875 89.457031 43.632812 89.539062 C 46.742188 90.171875 49.535156 91.6875 52.011719 94.089844 C 55.289062 97.292969 56.925781 101.210938 56.925781 105.84375 L 56.925781 122.527344 L 49.996094 122.527344 L 49.996094 105.84375 C 49.996094 103.0625 49.03125 100.703125 47.097656 98.765625 C 45.546875 97.125 43.65625 96.175781 41.429688 95.921875 L 41.429688 103.316406 L 34.5625 103.316406 L 34.5625 95.921875 C 32.378906 96.175781 30.46875 97.125 28.828125 98.765625 C 26.9375 100.703125 25.992188 103.0625 25.992188 105.84375 L 25.992188 122.527344 Z M 19 122.527344 " fill-opacity="1" fill-rule="nonzero"/><g clip-path="url(#c52e02bec5)"><path fill="#231f20" d="M -22.992188 122.527344 L -22.992188 105.84375 C -22.992188 101.210938 -21.332031 97.292969 -18.015625 94.089844 C -15.535156 91.6875 -12.742188 90.171875 -9.636719 89.539062 C -8.460938 89.328125 -7.304688 89.222656 -6.171875 89.222656 L -1.824219 89.222656 C -1.234375 89.222656 -0.65625 89.253906 -0.0898438 89.320312 C 0.476562 89.382812 1.054688 89.457031 1.640625 89.539062 C 4.75 90.171875 7.542969 91.6875 10.019531 94.089844 C 13.296875 97.292969 14.933594 101.210938 14.933594 105.84375 L 14.933594 122.527344 L 8.003906 122.527344 L 8.003906 105.84375 C 8.003906 103.0625 7.039062 100.703125 5.105469 98.765625 C 3.550781 97.125 1.664062 96.175781 -0.5625 95.921875 L -0.5625 103.316406 L -7.429688 103.316406 L -7.429688 95.921875 C -9.613281 96.175781 -11.527344 97.125 -13.164062 98.765625 C -15.054688 100.703125 -16 103.0625 -16 105.84375 L -16 122.527344 Z M -22.992188 122.527344 " fill-opacity="1" fill-rule="nonzero"/></g><g clip-path="url(#2334aa6a70)"><path fill="#231f20" d="M 35.539062 119.621094 L 35.539062 135.785156 C 35.539062 140.273438 33.921875 144.070312 30.6875 147.171875 C 28.269531 149.496094 25.546875 150.96875 22.519531 151.578125 C 21.371094 151.785156 20.246094 151.886719 19.140625 151.886719 L 14.902344 151.886719 C 14.328125 151.886719 13.765625 151.855469 13.214844 151.792969 C 12.660156 151.734375 12.097656 151.660156 11.523438 151.578125 C 8.496094 150.96875 5.773438 149.496094 3.355469 147.171875 C 0.164062 144.070312 -1.433594 140.273438 -1.433594 135.785156 L -1.433594 119.621094 L 5.324219 119.621094 L 5.324219 135.785156 C 5.324219 138.476562 6.265625 140.765625 8.148438 142.640625 C 9.664062 144.234375 11.503906 145.152344 13.675781 145.394531 L 13.675781 138.234375 L 20.367188 138.234375 L 20.367188 145.394531 C 22.5 145.152344 24.359375 144.234375 25.957031 142.640625 C 27.800781 140.765625 28.722656 138.476562 28.722656 135.785156 L 28.722656 119.621094 Z M 35.539062 119.621094 " fill-opacity="1" fill-rule="nonzero"/></g><path fill="#231f20" d="M 77.476562 119.621094 L 77.476562 135.785156 C 77.476562 140.273438 75.859375 144.070312 72.625 147.171875 C 70.210938 149.496094 67.488281 150.96875 64.457031 151.578125 C 63.308594 151.785156 62.183594 151.886719 61.078125 151.886719 L 56.839844 151.886719 C 56.269531 151.886719 55.707031 151.855469 55.152344 151.792969 C 54.601562 151.734375 54.039062 151.660156 53.464844 151.578125 C 50.433594 150.96875 47.710938 149.496094 45.296875 147.171875 C 42.101562 144.070312 40.503906 140.273438 40.503906 135.785156 L 40.503906 119.621094 L 47.261719 119.621094 L 47.261719 135.785156 C 47.261719 138.476562 48.203125 140.765625 50.085938 142.640625 C 51.601562 144.234375 53.441406 145.152344 55.613281 145.394531 L 55.613281 138.234375 L 62.308594 138.234375 L 62.308594 145.394531 C 64.4375 145.152344 66.300781 144.234375 67.894531 142.640625 C 69.738281 140.765625 70.660156 138.476562 70.660156 135.785156 L 70.660156 119.621094 Z M 77.476562 119.621094 " fill-opacity="1" fill-rule="nonzero"/><path fill="#231f20" d="M 119.414062 119.621094 L 119.414062 135.785156 C 119.414062 140.273438 117.796875 144.070312 114.5625 147.171875 C 112.144531 149.496094 109.421875 150.96875 106.394531 151.578125 C 105.246094 151.785156 104.121094 151.886719 103.015625 151.886719 L 98.777344 151.886719 C 98.203125 151.886719 97.640625 151.855469 97.089844 151.792969 C 96.535156 151.734375 95.972656 151.660156 95.402344 151.578125 C 92.371094 150.96875 89.648438 149.496094 87.230469 147.171875 C 84.039062 144.070312 82.441406 140.273438 82.441406 135.785156 L 82.441406 119.621094 L 89.199219 119.621094 L 89.199219 135.785156 C 89.199219 138.476562 90.140625 140.765625 92.023438 142.640625 C 93.539062 144.234375 95.378906 145.152344 97.550781 145.394531 L 97.550781 138.234375 L 104.242188 138.234375 L 104.242188 145.394531 C 106.375 145.152344 108.234375 144.234375 109.832031 142.640625 C 111.675781 140.765625 112.597656 138.476562 112.597656 135.785156 L 112.597656 119.621094 Z M 119.414062 119.621094 " fill-opacity="1" fill-rule="nonzero"/><path fill="#231f20" d="M 161.351562 119.621094 L 161.351562 135.785156 C 161.351562 140.273438 159.734375 144.070312 156.5 147.171875 C 154.082031 149.496094 151.359375 150.96875 148.328125 151.578125 C 147.183594 151.785156 146.058594 151.886719 144.953125 151.886719 L 140.714844 151.886719 C 140.140625 151.886719 139.578125 151.855469 139.027344 151.792969 C 138.472656 151.734375 137.910156 151.660156 137.335938 151.578125 C 134.308594 150.96875 131.585938 149.496094 129.167969 147.171875 C 125.976562 144.070312 124.378906 140.273438 124.378906 135.785156 L 124.378906 119.621094 L 131.132812 119.621094 L 131.132812 135.785156 C 131.132812 138.476562 132.074219 140.765625 133.960938 142.640625 C 135.472656 144.234375 137.316406 145.152344 139.488281 145.394531 L 139.488281 138.234375 L 146.179688 138.234375 L 146.179688 145.394531 C 148.308594 145.152344 150.171875 144.234375 151.769531 142.640625 C 153.613281 140.765625 154.53125 138.476562 154.53125 135.785156 L 154.53125 119.621094 Z M 161.351562 119.621094 " fill-opacity="1" fill-rule="nonzero"/><path fill="#231f20" d="M 203.285156 119.621094 L 203.285156 135.785156 C 203.285156 140.273438 201.667969 144.070312 198.433594 147.171875 C 196.019531 149.496094 193.296875 150.96875 190.265625 151.578125 C 189.121094 151.785156 187.996094 151.886719 186.890625 151.886719 L 182.652344 151.886719 C 182.078125 151.886719 181.515625 151.855469 180.960938 151.792969 C 180.410156 151.734375 179.847656 151.660156 179.273438 151.578125 C 176.242188 150.96875 173.519531 149.496094 171.105469 147.171875 C 167.910156 144.070312 166.316406 140.273438 166.316406 135.785156 L 166.316406 119.621094 L 173.070312 119.621094 L 173.070312 135.785156 C 173.070312 138.476562 174.011719 140.765625 175.894531 142.640625 C 177.410156 144.234375 179.253906 145.152344 181.421875 145.394531 L 181.421875 138.234375 L 188.117188 138.234375 L 188.117188 145.394531 C 190.246094 145.152344 192.109375 144.234375 193.707031 142.640625 C 195.546875 140.765625 196.46875 138.476562 196.46875 135.785156 L 196.46875 119.621094 Z M 203.285156 119.621094 " fill-opacity="1" fill-rule="nonzero"/><path fill="#231f20" d="M 245.222656 119.621094 L 245.222656 135.785156 C 245.222656 140.273438 243.605469 144.070312 240.371094 147.171875 C 237.957031 149.496094 235.234375 150.96875 232.203125 151.578125 C 231.054688 151.785156 229.929688 151.886719 228.824219 151.886719 L 224.585938 151.886719 C 224.015625 151.886719 223.453125 151.855469 222.898438 151.792969 C 222.347656 151.734375 221.78125 151.660156 221.210938 151.578125 C 218.179688 150.96875 215.457031 149.496094 213.042969 147.171875 C 209.847656 144.070312 208.25 140.273438 208.25 135.785156 L 208.25 119.621094 L 215.007812 119.621094 L 215.007812 135.785156 C 215.007812 138.476562 215.949219 140.765625 217.832031 142.640625 C 219.347656 144.234375 221.1875 145.152344 223.359375 145.394531 L 223.359375 138.234375 L 230.054688 138.234375 L 230.054688 145.394531 C 232.183594 145.152344 234.046875 144.234375 235.640625 142.640625 C 237.484375 140.765625 238.40625 138.476562 238.40625 135.785156 L 238.40625 119.621094 Z M 245.222656 119.621094 " fill-opacity="1" fill-rule="nonzero"/><path fill="#231f20" d="M 354.941406 122.527344 L 354.941406 105.84375 C 354.941406 101.210938 356.601562 97.292969 359.917969 94.089844 C 362.398438 91.6875 365.191406 90.171875 368.296875 89.539062 C 369.472656 89.328125 370.628906 89.222656 371.761719 89.222656 L 376.109375 89.222656 C 376.699219 89.222656 377.277344 89.253906 377.84375 89.320312 C 378.410156 89.382812 378.988281 89.457031 379.574219 89.539062 C 382.683594 90.171875 385.476562 91.6875 387.953125 94.089844 C 391.230469 97.292969 392.867188 101.210938 392.867188 105.84375 L 392.867188 122.527344 L 385.9375 122.527344 L 385.9375 105.84375 C 385.9375 103.0625 384.972656 100.703125 383.039062 98.765625 C 381.484375 97.125 379.597656 96.175781 377.371094 95.921875 L 377.371094 103.316406 L 370.503906 103.316406 L 370.503906 95.921875 C 368.320312 96.175781 366.40625 97.125 364.769531 98.765625 C 362.878906 100.703125 361.933594 103.0625 361.933594 105.84375 L 361.933594 122.527344 Z M 354.941406 122.527344 " fill-opacity="1" fill-rule="nonzero"/><path fill="#231f20" d="M 438.925781 122.527344 L 438.925781 105.84375 C 438.925781 101.210938 440.585938 97.292969 443.902344 94.089844 C 446.382812 91.6875 449.175781 90.171875 452.285156 89.539062 C 453.460938 89.328125 454.613281 89.222656 455.75 89.222656 L 460.09375 89.222656 C 460.683594 89.222656 461.261719 89.253906 461.828125 89.320312 C 462.394531 89.382812 462.972656 89.457031 463.558594 89.539062 C 466.667969 90.171875 469.460938 91.6875 471.941406 94.089844 C 475.214844 97.292969 476.851562 101.210938 476.851562 105.84375 L 476.851562 122.527344 L 469.921875 122.527344 L 469.921875 105.84375 C 469.921875 103.0625 468.957031 100.703125 467.023438 98.765625 C 465.472656 97.125 463.582031 96.175781 461.355469 95.921875 L 461.355469 103.316406 L 454.488281 103.316406 L 454.488281 95.921875 C 452.304688 96.175781 450.394531 97.125 448.753906 98.765625 C 446.867188 100.703125 445.921875 103.0625 445.921875 105.84375 L 445.921875 122.527344 Z M 438.925781 122.527344 " fill-opacity="1" fill-rule="nonzero"/><g clip-path="url(#f5d79cf961)"><path fill="#231f20" d="M 480.921875 122.527344 L 480.921875 105.84375 C 480.921875 101.210938 482.582031 97.292969 485.898438 94.089844 C 488.375 91.6875 491.167969 90.171875 494.277344 89.539062 C 495.453125 89.328125 496.609375 89.222656 497.742188 89.222656 L 502.089844 89.222656 C 502.675781 89.222656 503.253906 89.253906 503.820312 89.320312 C 504.390625 89.382812 504.964844 89.457031 505.554688 89.539062 C 508.664062 90.171875 511.457031 91.6875 513.933594 94.089844 C 517.210938 97.292969 518.847656 101.210938 518.847656 105.84375 L 518.847656 122.527344 L 511.917969 122.527344 L 511.917969 105.84375 C 511.917969 103.0625 510.953125 100.703125 509.019531 98.765625 C 507.464844 97.125 505.574219 96.175781 503.347656 95.921875 L 503.347656 103.316406 L 496.480469 103.316406 L 496.480469 95.921875 C 494.296875 96.175781 492.386719 97.125 490.75 98.765625 C 488.859375 100.703125 487.914062 103.0625 487.914062 105.84375 L 487.914062 122.527344 Z M 480.921875 122.527344 " fill-opacity="1" fill-rule="nonzero"/></g><path fill="#231f20" d="M 396.933594 122.527344 L 396.933594 105.84375 C 396.933594 101.210938 398.59375 97.292969 401.910156 94.089844 C 404.390625 91.6875 407.183594 90.171875 410.289062 89.539062 C 411.46875 89.328125 412.621094 89.222656 413.753906 89.222656 L 418.101562 89.222656 C 418.691406 89.222656 419.269531 89.253906 419.835938 89.320312 C 420.402344 89.382812 420.980469 89.457031 421.566406 89.539062 C 424.675781 90.171875 427.46875 91.6875 429.945312 94.089844 C 433.222656 97.292969 434.859375 101.210938 434.859375 105.84375 L 434.859375 122.527344 L 427.929688 122.527344 L 427.929688 105.84375 C 427.929688 103.0625 426.964844 100.703125 425.03125 98.765625 C 423.480469 97.125 421.589844 96.175781 419.363281 95.921875 L 419.363281 103.316406 L 412.496094 103.316406 L 412.496094 95.921875 C 410.3125 96.175781 408.402344 97.125 406.761719 98.765625 C 404.871094 100.703125 403.925781 103.0625 403.925781 105.84375 L 403.925781 122.527344 Z M 396.933594 122.527344 " fill-opacity="1" fill-rule="nonzero"/><path fill="#231f20" d="M 312.949219 122.527344 L 312.949219 105.84375 C 312.949219 101.210938 314.609375 97.292969 317.925781 94.089844 C 320.40625 91.6875 323.199219 90.171875 326.304688 89.539062 C 327.480469 89.328125 328.636719 89.222656 329.769531 89.222656 L 334.117188 89.222656 C 334.707031 89.222656 335.285156 89.253906 335.851562 89.320312 C 336.417969 89.382812 336.996094 89.457031 337.582031 89.539062 C 340.691406 90.171875 343.484375 91.6875 345.960938 94.089844 C 349.238281 97.292969 350.875 101.210938 350.875 105.84375 L 350.875 122.527344 L 343.945312 122.527344 L 343.945312 105.84375 C 343.945312 103.0625 342.980469 100.703125 341.046875 98.765625 C 339.492188 97.125 337.605469 96.175781 335.378906 95.921875 L 335.378906 103.316406 L 328.511719 103.316406 L 328.511719 95.921875 C 326.328125 96.175781 324.414062 97.125 322.777344 98.765625 C 320.886719 100.703125 319.941406 103.0625 319.941406 105.84375 L 319.941406 122.527344 Z M 312.949219 122.527344 " fill-opacity="1" fill-rule="nonzero"/><path fill="#231f20" d="M 270.957031 122.527344 L 270.957031 105.84375 C 270.957031 101.210938 272.617188 97.292969 275.933594 94.089844 C 278.410156 91.6875 281.203125 90.171875 284.3125 89.539062 C 285.488281 89.328125 286.644531 89.222656 287.777344 89.222656 L 292.125 89.222656 C 292.714844 89.222656 293.289062 89.253906 293.859375 89.320312 C 294.425781 89.382812 295 89.457031 295.589844 89.539062 C 298.699219 90.171875 301.492188 91.6875 303.96875 94.089844 C 307.246094 97.292969 308.882812 101.210938 308.882812 105.84375 L 308.882812 122.527344 L 301.953125 122.527344 L 301.953125 105.84375 C 301.953125 103.0625 300.988281 100.703125 299.054688 98.765625 C 297.5 97.125 295.609375 96.175781 293.386719 95.921875 L 293.386719 103.316406 L 286.519531 103.316406 L 286.519531 95.921875 C 284.332031 96.175781 282.421875 97.125 280.785156 98.765625 C 278.894531 100.703125 277.949219 103.0625 277.949219 105.84375 L 277.949219 122.527344 Z M 270.957031 122.527344 " fill-opacity="1" fill-rule="nonzero"/><path fill="#231f20" d="M 287.578125 119.621094 L 287.578125 135.785156 C 287.578125 140.273438 285.960938 144.070312 282.726562 147.171875 C 280.3125 149.496094 277.589844 150.96875 274.558594 151.578125 C 273.410156 151.785156 272.285156 151.886719 271.179688 151.886719 L 266.941406 151.886719 C 266.371094 151.886719 265.808594 151.855469 265.253906 151.792969 C 264.703125 151.734375 264.136719 151.660156 263.566406 151.578125 C 260.535156 150.96875 257.8125 149.496094 255.398438 147.171875 C 252.203125 144.070312 250.605469 140.273438 250.605469 135.785156 L 250.605469 119.621094 L 257.363281 119.621094 L 257.363281 135.785156 C 257.363281 138.476562 258.304688 140.765625 260.1875 142.640625 C 261.703125 144.234375 263.542969 145.152344 265.714844 145.394531 L 265.714844 138.234375 L 272.410156 138.234375 L 272.410156 145.394531 C 274.539062 145.152344 276.402344 144.234375 277.996094 142.640625 C 279.839844 140.765625 280.761719 138.476562 280.761719 135.785156 L 280.761719 119.621094 Z M 287.578125 119.621094 " fill-opacity="1" fill-rule="nonzero"/><path fill="#231f20" d="M 329.515625 119.621094 L 329.515625 135.785156 C 329.515625 140.273438 327.898438 144.070312 324.664062 147.171875 C 322.246094 149.496094 319.523438 150.96875 316.496094 151.578125 C 315.347656 151.785156 314.222656 151.886719 313.117188 151.886719 L 308.878906 151.886719 C 308.304688 151.886719 307.742188 151.855469 307.191406 151.792969 C 306.636719 151.734375 306.074219 151.660156 305.5 151.578125 C 302.472656 150.96875 299.75 149.496094 297.332031 147.171875 C 294.140625 144.070312 292.542969 140.273438 292.542969 135.785156 L 292.542969 119.621094 L 299.300781 119.621094 L 299.300781 135.785156 C 299.300781 138.476562 300.242188 140.765625 302.125 142.640625 C 303.640625 144.234375 305.480469 145.152344 307.652344 145.394531 L 307.652344 138.234375 L 314.34375 138.234375 L 314.34375 145.394531 C 316.472656 145.152344 318.335938 144.234375 319.933594 142.640625 C 321.777344 140.765625 322.699219 138.476562 322.699219 135.785156 L 322.699219 119.621094 Z M 329.515625 119.621094 " fill-opacity="1" fill-rule="nonzero"/><path fill="#231f20" d="M 371.449219 119.621094 L 371.449219 135.785156 C 371.449219 140.273438 369.832031 144.070312 366.601562 147.171875 C 364.183594 149.496094 361.460938 150.96875 358.429688 151.578125 C 357.285156 151.785156 356.160156 151.886719 355.054688 151.886719 L 350.816406 151.886719 C 350.242188 151.886719 349.679688 151.855469 349.128906 151.792969 C 348.574219 151.734375 348.011719 151.660156 347.4375 151.578125 C 344.410156 150.96875 341.6875 149.496094 339.269531 147.171875 C 336.078125 144.070312 334.480469 140.273438 334.480469 135.785156 L 334.480469 119.621094 L 341.234375 119.621094 L 341.234375 135.785156 C 341.234375 138.476562 342.175781 140.765625 344.0625 142.640625 C 345.574219 144.234375 347.417969 145.152344 349.585938 145.394531 L 349.585938 138.234375 L 356.28125 138.234375 L 356.28125 145.394531 C 358.410156 145.152344 360.273438 144.234375 361.871094 142.640625 C 363.714844 140.765625 364.632812 138.476562 364.632812 135.785156 L 364.632812 119.621094 Z M 371.449219 119.621094 " fill-opacity="1" fill-rule="nonzero"/><path fill="#231f20" d="M 413.386719 119.621094 L 413.386719 135.785156 C 413.386719 140.273438 411.769531 144.070312 408.535156 147.171875 C 406.121094 149.496094 403.398438 150.96875 400.367188 151.578125 C 399.222656 151.785156 398.09375 151.886719 396.988281 151.886719 L 392.753906 151.886719 C 392.179688 151.886719 391.617188 151.855469 391.0625 151.792969 C 390.511719 151.734375 389.949219 151.660156 389.375 151.578125 C 386.34375 150.96875 383.621094 149.496094 381.207031 147.171875 C 378.011719 144.070312 376.417969 140.273438 376.417969 135.785156 L 376.417969 119.621094 L 383.171875 119.621094 L 383.171875 135.785156 C 383.171875 138.476562 384.113281 140.765625 385.996094 142.640625 C 387.511719 144.234375 389.355469 145.152344 391.523438 145.394531 L 391.523438 138.234375 L 398.21875 138.234375 L 398.21875 145.394531 C 400.347656 145.152344 402.210938 144.234375 403.808594 142.640625 C 405.648438 140.765625 406.570312 138.476562 406.570312 135.785156 L 406.570312 119.621094 Z M 413.386719 119.621094 " fill-opacity="1" fill-rule="nonzero"/><path fill="#231f20" d="M 455.324219 119.621094 L 455.324219 135.785156 C 455.324219 140.273438 453.707031 144.070312 450.472656 147.171875 C 448.058594 149.496094 445.332031 150.96875 442.304688 151.578125 C 441.15625 151.785156 440.03125 151.886719 438.925781 151.886719 L 434.6875 151.886719 C 434.117188 151.886719 433.550781 151.855469 433 151.792969 C 432.445312 151.734375 431.882812 151.660156 431.3125 151.578125 C 428.28125 150.96875 425.558594 149.496094 423.144531 147.171875 C 419.949219 144.070312 418.351562 140.273438 418.351562 135.785156 L 418.351562 119.621094 L 425.109375 119.621094 L 425.109375 135.785156 C 425.109375 138.476562 426.050781 140.765625 427.933594 142.640625 C 429.449219 144.234375 431.289062 145.152344 433.460938 145.394531 L 433.460938 138.234375 L 440.15625 138.234375 L 440.15625 145.394531 C 442.285156 145.152344 444.148438 144.234375 445.742188 142.640625 C 447.585938 140.765625 448.507812 138.476562 448.507812 135.785156 L 448.507812 119.621094 Z M 455.324219 119.621094 " fill-opacity="1" fill-rule="nonzero"/><g clip-path="url(#9aa95d0f85)"><path fill="#231f20" d="M 497.261719 119.621094 L 497.261719 135.785156 C 497.261719 140.273438 495.644531 144.070312 492.410156 147.171875 C 489.992188 149.496094 487.269531 150.96875 484.242188 151.578125 C 483.09375 151.785156 481.96875 151.886719 480.863281 151.886719 L 476.625 151.886719 C 476.050781 151.886719 475.488281 151.855469 474.9375 151.792969 C 474.382812 151.734375 473.820312 151.660156 473.246094 151.578125 C 470.21875 150.96875 467.496094 149.496094 465.078125 147.171875 C 461.886719 144.070312 460.289062 140.273438 460.289062 135.785156 L 460.289062 119.621094 L 467.042969 119.621094 L 467.042969 135.785156 C 467.042969 138.476562 467.988281 140.765625 469.871094 142.640625 C 471.386719 144.234375 473.226562 145.152344 475.398438 145.394531 L 475.398438 138.234375 L 482.089844 138.234375 L 482.089844 145.394531 C 484.21875 145.152344 486.082031 144.234375 487.679688 142.640625 C 489.523438 140.765625 490.445312 138.476562 490.445312 135.785156 L 490.445312 119.621094 Z M 497.261719 119.621094 " fill-opacity="1" fill-rule="nonzero"/></g><g clip-path="url(#4e17f6bb2c)"><path fill="#231f20" d="M 103.15625 182.289062 L 103.15625 165.605469 C 103.15625 160.96875 104.816406 157.050781 108.132812 153.851562 C 110.609375 151.449219 113.402344 149.929688 116.511719 149.300781 C 117.6875 149.089844 118.84375 148.984375 119.976562 148.984375 L 124.324219 148.984375 C 124.910156 148.984375 125.488281 149.015625 126.054688 149.078125 C 126.625 149.140625 127.199219 149.214844 127.789062 149.300781 C 130.898438 149.929688 133.691406 151.449219 136.167969 153.851562 C 139.445312 157.050781 141.082031 160.96875 141.082031 165.605469 L 141.082031 182.289062 L 134.152344 182.289062 L 134.152344 165.605469 C 134.152344 162.824219 133.1875 160.464844 131.253906 158.527344 C 129.699219 156.882812 127.808594 155.933594 125.582031 155.683594 L 125.582031 163.078125 L 118.71875 163.078125 L 118.71875 155.683594 C 116.53125 155.933594 114.621094 156.882812 112.984375 158.527344 C 111.09375 160.464844 110.148438 162.824219 110.148438 165.605469 L 110.148438 182.289062 Z M 103.15625 182.289062 " fill-opacity="1" fill-rule="nonzero"/></g><g clip-path="url(#daa1be4e44)"><path fill="#231f20" d="M 187.140625 182.289062 L 187.140625 165.605469 C 187.140625 160.96875 188.800781 157.050781 192.117188 153.851562 C 194.597656 151.449219 197.390625 149.929688 200.496094 149.300781 C 201.671875 149.089844 202.828125 148.984375 203.960938 148.984375 L 208.308594 148.984375 C 208.898438 148.984375 209.476562 149.015625 210.042969 149.078125 C 210.609375 149.140625 211.1875 149.214844 211.773438 149.300781 C 214.882812 149.929688 217.675781 151.449219 220.152344 153.851562 C 223.429688 157.050781 225.066406 160.96875 225.066406 165.605469 L 225.066406 182.289062 L 218.136719 182.289062 L 218.136719 165.605469 C 218.136719 162.824219 217.171875 160.464844 215.238281 158.527344 C 213.683594 156.882812 211.796875 155.933594 209.570312 155.683594 L 209.570312 163.078125 L 202.703125 163.078125 L 202.703125 155.683594 C 200.519531 155.933594 198.605469 156.882812 196.96875 158.527344 C 195.078125 160.464844 194.132812 162.824219 194.132812 165.605469 L 194.132812 182.289062 Z M 187.140625 182.289062 " fill-opacity="1" fill-rule="nonzero"/></g><g clip-path="url(#6ed0e78e95)"><path fill="#231f20" d="M 229.132812 182.289062 L 229.132812 165.605469 C 229.132812 160.96875 230.792969 157.050781 234.109375 153.851562 C 236.589844 151.449219 239.382812 149.929688 242.488281 149.300781 C 243.664062 149.089844 244.820312 148.984375 245.953125 148.984375 L 250.300781 148.984375 C 250.890625 148.984375 251.46875 149.015625 252.035156 149.078125 C 252.601562 149.140625 253.179688 149.214844 253.765625 149.300781 C 256.875 149.929688 259.667969 151.449219 262.144531 153.851562 C 265.421875 157.050781 267.058594 160.96875 267.058594 165.605469 L 267.058594 182.289062 L 260.128906 182.289062 L 260.128906 165.605469 C 260.128906 162.824219 259.164062 160.464844 257.230469 158.527344 C 255.675781 156.882812 253.789062 155.933594 251.5625 155.683594 L 251.5625 163.078125 L 244.695312 163.078125 L 244.695312 155.683594 C 242.511719 155.933594 240.597656 156.882812 238.960938 158.527344 C 237.070312 160.464844 236.125 162.824219 236.125 165.605469 L 236.125 182.289062 Z M 229.132812 182.289062 " fill-opacity="1" fill-rule="nonzero"/></g><g clip-path="url(#c5ccb6e633)"><path fill="#231f20" d="M 145.148438 182.289062 L 145.148438 165.605469 C 145.148438 160.96875 146.808594 157.050781 150.125 153.851562 C 152.601562 151.449219 155.398438 149.929688 158.503906 149.300781 C 159.679688 149.089844 160.835938 148.984375 161.96875 148.984375 L 166.316406 148.984375 C 166.90625 148.984375 167.480469 149.015625 168.050781 149.078125 C 168.617188 149.140625 169.195312 149.214844 169.78125 149.300781 C 172.890625 149.929688 175.683594 151.449219 178.160156 153.851562 C 181.4375 157.050781 183.074219 160.96875 183.074219 165.605469 L 183.074219 182.289062 L 176.144531 182.289062 L 176.144531 165.605469 C 176.144531 162.824219 175.179688 160.464844 173.246094 158.527344 C 171.691406 156.882812 169.804688 155.933594 167.578125 155.683594 L 167.578125 163.078125 L 160.710938 163.078125 L 160.710938 155.683594 C 158.523438 155.933594 156.613281 156.882812 154.976562 158.527344 C 153.085938 160.464844 152.140625 162.824219 152.140625 165.605469 L 152.140625 182.289062 Z M 145.148438 182.289062 " fill-opacity="1" fill-rule="nonzero"/></g><g clip-path="url(#868c998670)"><path fill="#231f20" d="M 61.164062 182.289062 L 61.164062 165.605469 C 61.164062 160.96875 62.820312 157.050781 66.140625 153.851562 C 68.617188 151.449219 71.410156 149.929688 74.519531 149.300781 C 75.695312 149.089844 76.851562 148.984375 77.984375 148.984375 L 82.332031 148.984375 C 82.917969 148.984375 83.496094 149.015625 84.0625 149.078125 C 84.632812 149.140625 85.207031 149.214844 85.796875 149.300781 C 88.902344 149.929688 91.695312 151.449219 94.175781 153.851562 C 97.453125 157.050781 99.089844 160.96875 99.089844 165.605469 L 99.089844 182.289062 L 92.160156 182.289062 L 92.160156 165.605469 C 92.160156 162.824219 91.195312 160.464844 89.261719 158.527344 C 87.707031 156.882812 85.816406 155.933594 83.589844 155.683594 L 83.589844 163.078125 L 76.722656 163.078125 L 76.722656 155.683594 C 74.539062 155.933594 72.628906 156.882812 70.992188 158.527344 C 69.101562 160.464844 68.15625 162.824219 68.15625 165.605469 L 68.15625 182.289062 Z M 61.164062 182.289062 " fill-opacity="1" fill-rule="nonzero"/></g><g clip-path="url(#ad780ad22b)"><path fill="#231f20" d="M 19.171875 182.289062 L 19.171875 165.605469 C 19.171875 160.96875 20.828125 157.050781 24.148438 153.851562 C 26.625 151.449219 29.417969 149.929688 32.527344 149.300781 C 33.703125 149.089844 34.859375 148.984375 35.992188 148.984375 L 40.339844 148.984375 C 40.925781 148.984375 41.503906 149.015625 42.070312 149.078125 C 42.636719 149.140625 43.214844 149.214844 43.804688 149.300781 C 46.910156 149.929688 49.703125 151.449219 52.183594 153.851562 C 55.457031 157.050781 57.097656 160.96875 57.097656 165.605469 L 57.097656 182.289062 L 50.167969 182.289062 L 50.167969 165.605469 C 50.167969 162.824219 49.199219 160.464844 47.269531 158.527344 C 45.714844 156.882812 43.824219 155.933594 41.597656 155.683594 L 41.597656 163.078125 L 34.730469 163.078125 L 34.730469 155.683594 C 32.546875 155.933594 30.636719 156.882812 29 158.527344 C 27.109375 160.464844 26.164062 162.824219 26.164062 165.605469 L 26.164062 182.289062 Z M 19.171875 182.289062 " fill-opacity="1" fill-rule="nonzero"/></g><g clip-path="url(#3a52479ae2)"><path fill="#231f20" d="M -22.820312 182.289062 L -22.820312 165.605469 C -22.820312 160.96875 -21.164062 157.050781 -17.84375 153.851562 C -15.367188 151.449219 -12.574219 149.929688 -9.464844 149.300781 C -8.289062 149.089844 -7.136719 148.984375 -6 148.984375 L -1.652344 148.984375 C -1.066406 148.984375 -0.488281 149.015625 0.078125 149.078125 C 0.644531 149.140625 1.222656 149.214844 1.8125 149.300781 C 4.917969 149.929688 7.710938 151.449219 10.191406 153.851562 C 13.464844 157.050781 15.105469 160.96875 15.105469 165.605469 L 15.105469 182.289062 L 8.175781 182.289062 L 8.175781 165.605469 C 8.175781 162.824219 7.207031 160.464844 5.277344 158.527344 C 3.722656 156.882812 1.832031 155.933594 -0.394531 155.683594 L -0.394531 163.078125 L -7.261719 163.078125 L -7.261719 155.683594 C -9.445312 155.933594 -11.355469 156.882812 -12.992188 158.527344 C -14.882812 160.464844 -15.828125 162.824219 -15.828125 165.605469 L -15.828125 182.289062 Z M -22.820312 182.289062 " fill-opacity="1" fill-rule="nonzero"/></g><g clip-path="url(#d93944f1b7)"><path fill="#231f20" d="M 355.113281 182.289062 L 355.113281 165.605469 C 355.113281 160.96875 356.769531 157.050781 360.089844 153.851562 C 362.566406 151.449219 365.359375 149.929688 368.46875 149.300781 C 369.644531 149.089844 370.796875 148.984375 371.933594 148.984375 L 376.28125 148.984375 C 376.867188 148.984375 377.445312 149.015625 378.011719 149.078125 C 378.578125 149.140625 379.15625 149.214844 379.746094 149.300781 C 382.851562 149.929688 385.644531 151.449219 388.125 153.851562 C 391.398438 157.050781 393.039062 160.96875 393.039062 165.605469 L 393.039062 182.289062 L 386.109375 182.289062 L 386.109375 165.605469 C 386.109375 162.824219 385.140625 160.464844 383.210938 158.527344 C 381.65625 156.882812 379.765625 155.933594 377.539062 155.683594 L 377.539062 163.078125 L 370.671875 163.078125 L 370.671875 155.683594 C 368.488281 155.933594 366.578125 156.882812 364.941406 158.527344 C 363.050781 160.464844 362.105469 162.824219 362.105469 165.605469 L 362.105469 182.289062 Z M 355.113281 182.289062 " fill-opacity="1" fill-rule="nonzero"/></g><g clip-path="url(#e59417c324)"><path fill="#231f20" d="M 439.097656 182.289062 L 439.097656 165.605469 C 439.097656 160.96875 440.753906 157.050781 444.074219 153.851562 C 446.550781 151.449219 449.34375 149.929688 452.453125 149.300781 C 453.628906 149.089844 454.785156 148.984375 455.917969 148.984375 L 460.265625 148.984375 C 460.851562 148.984375 461.429688 149.015625 461.996094 149.078125 C 462.566406 149.140625 463.140625 149.214844 463.730469 149.300781 C 466.835938 149.929688 469.628906 151.449219 472.109375 153.851562 C 475.386719 157.050781 477.023438 160.96875 477.023438 165.605469 L 477.023438 182.289062 L 470.09375 182.289062 L 470.09375 165.605469 C 470.09375 162.824219 469.128906 160.464844 467.195312 158.527344 C 465.640625 156.882812 463.75 155.933594 461.523438 155.683594 L 461.523438 163.078125 L 454.65625 163.078125 L 454.65625 155.683594 C 452.472656 155.933594 450.5625 156.882812 448.925781 158.527344 C 447.035156 160.464844 446.089844 162.824219 446.089844 165.605469 L 446.089844 182.289062 Z M 439.097656 182.289062 " fill-opacity="1" fill-rule="nonzero"/></g><g clip-path="url(#451e883962)"><path fill="#231f20" d="M 481.089844 182.289062 L 481.089844 165.605469 C 481.089844 160.96875 482.75 157.050781 486.066406 153.851562 C 488.546875 151.449219 491.339844 149.929688 494.445312 149.300781 C 495.621094 149.089844 496.777344 148.984375 497.910156 148.984375 L 502.257812 148.984375 C 502.847656 148.984375 503.425781 149.015625 503.992188 149.078125 C 504.558594 149.140625 505.136719 149.214844 505.722656 149.300781 C 508.832031 149.929688 511.625 151.449219 514.101562 153.851562 C 517.378906 157.050781 519.015625 160.96875 519.015625 165.605469 L 519.015625 182.289062 L 512.085938 182.289062 L 512.085938 165.605469 C 512.085938 162.824219 511.121094 160.464844 509.1875 158.527344 C 507.632812 156.882812 505.746094 155.933594 503.519531 155.683594 L 503.519531 163.078125 L 496.652344 163.078125 L 496.652344 155.683594 C 494.46875 155.933594 492.554688 156.882812 490.917969 158.527344 C 489.027344 160.464844 488.082031 162.824219 488.082031 165.605469 L 488.082031 182.289062 Z M 481.089844 182.289062 " fill-opacity="1" fill-rule="nonzero"/></g><g clip-path="url(#197dc0b2d3)"><path fill="#231f20" d="M 397.105469 182.289062 L 397.105469 165.605469 C 397.105469 160.96875 398.761719 157.050781 402.082031 153.851562 C 404.558594 151.449219 407.351562 149.929688 410.460938 149.300781 C 411.636719 149.089844 412.792969 148.984375 413.925781 148.984375 L 418.273438 148.984375 C 418.859375 148.984375 419.4375 149.015625 420.003906 149.078125 C 420.570312 149.140625 421.148438 149.214844 421.738281 149.300781 C 424.84375 149.929688 427.636719 151.449219 430.117188 153.851562 C 433.390625 157.050781 435.03125 160.96875 435.03125 165.605469 L 435.03125 182.289062 L 428.101562 182.289062 L 428.101562 165.605469 C 428.101562 162.824219 427.132812 160.464844 425.203125 158.527344 C 423.648438 156.882812 421.757812 155.933594 419.53125 155.683594 L 419.53125 163.078125 L 412.664062 163.078125 L 412.664062 155.683594 C 410.480469 155.933594 408.570312 156.882812 406.933594 158.527344 C 405.042969 160.464844 404.097656 162.824219 404.097656 165.605469 L 404.097656 182.289062 Z M 397.105469 182.289062 " fill-opacity="1" fill-rule="nonzero"/></g><g clip-path="url(#f9a66877be)"><path fill="#231f20" d="M 313.117188 182.289062 L 313.117188 165.605469 C 313.117188 160.96875 314.777344 157.050781 318.09375 153.851562 C 320.574219 151.449219 323.367188 149.929688 326.476562 149.300781 C 327.652344 149.089844 328.804688 148.984375 329.941406 148.984375 L 334.285156 148.984375 C 334.875 148.984375 335.453125 149.015625 336.019531 149.078125 C 336.585938 149.140625 337.164062 149.214844 337.75 149.300781 C 340.859375 149.929688 343.652344 151.449219 346.132812 153.851562 C 349.40625 157.050781 351.046875 160.96875 351.046875 165.605469 L 351.046875 182.289062 L 344.113281 182.289062 L 344.113281 165.605469 C 344.113281 162.824219 343.148438 160.464844 341.21875 158.527344 C 339.664062 156.882812 337.773438 155.933594 335.546875 155.683594 L 335.546875 163.078125 L 328.679688 163.078125 L 328.679688 155.683594 C 326.496094 155.933594 324.585938 156.882812 322.945312 158.527344 C 321.058594 160.464844 320.113281 162.824219 320.113281 165.605469 L 320.113281 182.289062 Z M 313.117188 182.289062 " fill-opacity="1" fill-rule="nonzero"/></g><g clip-path="url(#0d0e53849a)"><path fill="#231f20" d="M 271.125 182.289062 L 271.125 165.605469 C 271.125 160.96875 272.785156 157.050781 276.101562 153.851562 C 278.582031 151.449219 281.375 149.929688 284.480469 149.300781 C 285.660156 149.089844 286.8125 148.984375 287.945312 148.984375 L 292.292969 148.984375 C 292.882812 148.984375 293.460938 149.015625 294.027344 149.078125 C 294.59375 149.140625 295.171875 149.214844 295.757812 149.300781 C 298.867188 149.929688 301.660156 151.449219 304.136719 153.851562 C 307.414062 157.050781 309.050781 160.96875 309.050781 165.605469 L 309.050781 182.289062 L 302.121094 182.289062 L 302.121094 165.605469 C 302.121094 162.824219 301.15625 160.464844 299.222656 158.527344 C 297.671875 156.882812 295.78125 155.933594 293.554688 155.683594 L 293.554688 163.078125 L 286.6875 163.078125 L 286.6875 155.683594 C 284.503906 155.933594 282.59375 156.882812 280.953125 158.527344 C 279.0625 160.464844 278.117188 162.824219 278.117188 165.605469 L 278.117188 182.289062 Z M 271.125 182.289062 " fill-opacity="1" fill-rule="nonzero"/></g></g></g></g></svg>