<svg xmlns="http://www.w3.org/2000/svg" xmlns:xlink="http://www.w3.org/1999/xlink" width="400" zoomAndPan="magnify" viewBox="0 0 300 299.999988" height="400" preserveAspectRatio="xMidYMid meet" version="1.0"><path fill="#231f20" d="M 283.042969 52.71875 L 283.042969 165.765625 C 283.042969 197.167969 271.769531 223.71875 249.21875 245.414062 C 232.375 261.683594 213.394531 271.964844 192.269531 276.242188 C 184.277344 277.671875 176.425781 278.386719 168.71875 278.386719 L 139.175781 278.386719 C 135.175781 278.386719 131.25 278.171875 127.398438 277.742188 C 123.542969 277.316406 119.621094 276.816406 115.625 276.242188 C 94.5 271.964844 75.515625 261.683594 58.675781 245.414062 C 36.40625 223.71875 25.277344 197.167969 25.277344 165.765625 L 25.277344 52.71875 L 72.375 52.71875 L 72.375 165.765625 C 72.375 184.605469 78.941406 200.59375 92.074219 213.726562 C 102.636719 224.859375 115.480469 231.28125 130.609375 232.996094 L 130.609375 182.894531 L 177.28125 182.894531 L 177.28125 232.996094 C 192.128906 231.28125 205.117188 224.859375 216.246094 213.726562 C 229.09375 200.59375 235.515625 184.605469 235.515625 165.765625 L 235.515625 52.71875 Z M 283.042969 52.71875 " fill-opacity="1" fill-rule="nonzero"/></svg>