<?xml version="1.0" encoding="UTF-8" standalone="no"?><!DOCTYPE svg PUBLIC "-//W3C//DTD SVG 1.1//EN" "http://www.w3.org/Graphics/SVG/1.1/DTD/svg11.dtd"><svg width="100%" height="100%" viewBox="0 0 705 189" version="1.1" xmlns="http://www.w3.org/2000/svg" xmlns:xlink="http://www.w3.org/1999/xlink" xml:space="preserve" xmlns:serif="http://www.serif.com/" style="fill-rule:evenodd;clip-rule:evenodd;stroke-linejoin:round;stroke-miterlimit:2;"><rect id="Artboard2" x="0" y="0" width="704.2" height="188.351" style="fill:none;"/><path d="M134.303,62.861l0,35.127c0,9.757 -3.504,18.007 -10.511,24.748c-5.234,5.056 -11.133,8.25 -17.697,9.58c-2.484,0.444 -4.923,0.666 -7.318,0.666l-9.181,-0c-1.242,-0 -2.462,-0.067 -3.659,-0.2c-1.198,-0.133 -2.417,-0.288 -3.659,-0.466c-6.564,-1.33 -12.463,-4.524 -17.697,-9.58c-6.919,-6.741 -10.378,-14.991 -10.378,-24.748l-0,-35.127l14.636,-0l0,35.127c0,5.854 2.04,10.822 6.121,14.902c3.282,3.459 7.273,5.455 11.975,5.988l-0,-15.568l14.503,-0l0,15.568c4.613,-0.533 8.649,-2.529 12.108,-5.988c3.992,-4.08 5.988,-9.048 5.988,-14.902l-0,-35.127l14.769,-0Z" style="fill:#231f20;fill-rule:nonzero;"/><path d="M142.232,132.982l-0,-55.485l16.366,-0l-0,55.485l-16.366,-0Zm-0,-61.606l16.366,0l-0,-12.374l-16.366,0l-0,12.374Z" style="fill:#231f20;fill-rule:nonzero;"/><path d="M187.469,82.952c-3.992,4.169 -5.988,9.092 -5.988,14.77l-0,35.26l-14.769,-0l-0,-35.26c-0,-9.581 3.504,-17.83 10.511,-24.749c6.83,-6.742 15.169,-10.112 25.015,-10.112l9.58,-0l-0,13.838l-9.58,-0c-5.855,-0 -10.778,2.084 -14.769,6.253Z" style="fill:#231f20;fill-rule:nonzero;"/><path d="M244.947,132.982c-4.879,-0.089 -9.425,-1.065 -13.639,-2.928c-4.213,-1.862 -7.872,-4.368 -10.977,-7.517c-3.105,-3.149 -5.544,-6.831 -7.318,-11.044c-1.774,-4.214 -2.661,-8.715 -2.661,-13.505c-0,-4.879 0.953,-9.447 2.861,-13.705c1.907,-4.258 4.457,-7.984 7.65,-11.177c3.194,-3.193 6.941,-5.699 11.244,-7.518c4.302,-1.818 8.848,-2.727 13.638,-2.727c3.548,-0 7.008,0.532 10.378,1.596c3.371,1.065 6.498,2.551 9.381,4.458c2.883,1.907 5.477,4.213 7.784,6.919c2.306,2.705 4.124,5.699 5.455,8.981c-5.056,7.451 -9.026,13.284 -11.909,17.497c-2.882,4.213 -4.767,6.941 -5.654,8.183c-0.888,1.242 -1.664,2.373 -2.329,3.393c-0.665,1.02 -1.264,1.929 -1.796,2.728c-1.153,1.508 -1.73,2.35 -1.73,2.528l-0.266,0.399l33.397,-0l0,13.439l-43.509,-0Zm0.798,-56.55c-3.016,0 -5.788,0.577 -8.316,1.73c-2.528,1.153 -4.746,2.706 -6.653,4.657c-1.907,1.952 -3.393,4.236 -4.457,6.853c-1.065,2.616 -1.597,5.388 -1.597,8.316c-0,4.169 1.153,8.116 3.459,11.842c2.307,3.725 5.411,6.431 9.314,8.116l0.267,0l23.684,-34.462l-0.666,-0.665c-4.08,-4.258 -9.092,-6.387 -15.035,-6.387Z" style="fill:#231f20;fill-rule:nonzero;"/><path d="M369.431,138.387l-7.485,-8.126c-2.495,2.067 -5.31,3.778 -8.447,5.132c-2.067,0.927 -4.205,1.604 -6.415,2.032c-2.209,0.427 -4.455,0.641 -6.736,0.641c-4.704,0 -9.088,-0.891 -13.151,-2.673c-4.134,-1.782 -7.698,-4.17 -10.692,-7.163c-3.136,-3.137 -5.56,-6.736 -7.271,-10.799c-1.782,-4.206 -2.673,-8.554 -2.673,-13.045c0,-0.926 0.036,-1.817 0.107,-2.673c0.072,-0.855 0.178,-1.711 0.321,-2.566l13.151,0c-0.214,0.855 -0.392,1.711 -0.534,2.566c-0.143,0.856 -0.214,1.747 -0.214,2.673c-0,2.851 0.552,5.542 1.657,8.073c1.105,2.53 2.602,4.74 4.491,6.629c1.889,1.889 4.098,3.386 6.629,4.49c2.53,1.105 5.257,1.658 8.179,1.658c2.424,-0 4.723,-0.392 6.897,-1.176c2.174,-0.784 4.152,-1.889 5.934,-3.315l-35.712,-38.705l0,-2.566c0,-2.994 0.57,-5.792 1.711,-8.394c1.14,-2.601 2.673,-4.882 4.598,-6.842c1.924,-1.961 4.205,-3.511 6.842,-4.651c2.638,-1.141 5.453,-1.711 8.447,-1.711c4.348,-0 8.34,1.176 11.975,3.528c3.636,2.352 6.273,5.56 7.912,9.623c1.141,2.566 1.711,5.382 1.711,8.447l-12.83,-0c-0,-1.212 -0.214,-2.353 -0.642,-3.422c-0.713,-1.639 -1.8,-2.94 -3.261,-3.902c-1.461,-0.963 -3.083,-1.444 -4.865,-1.444c-2.067,0 -3.867,0.624 -5.399,1.871c-1.533,1.248 -2.584,2.834 -3.154,4.758l29.937,32.504c0.499,-1.711 0.749,-3.528 0.749,-5.453c-0,-1.782 -0.214,-3.528 -0.642,-5.239l13.045,0c0.142,0.855 0.249,1.711 0.32,2.566c0.072,0.856 0.107,1.747 0.107,2.673c0,2.281 -0.214,4.509 -0.641,6.683c-0.428,2.174 -1.105,4.294 -2.032,6.362c-0.356,1.069 -0.784,1.995 -1.283,2.779l8.768,9.516l-9.409,8.661Z" style="fill:#231f20;fill-rule:nonzero;"/><g><path d="M478.513,62.861l0,35.127c0,9.757 -3.504,18.007 -10.511,24.748c-5.234,5.056 -11.133,8.25 -17.697,9.58c-2.484,0.444 -4.923,0.666 -7.318,0.666l-9.181,-0c-1.242,-0 -2.462,-0.067 -3.659,-0.2c-1.198,-0.133 -2.417,-0.288 -3.659,-0.466c-6.564,-1.33 -12.463,-4.524 -17.697,-9.58c-6.919,-6.741 -10.378,-14.991 -10.378,-24.748l-0,-35.127l14.636,-0l0,35.127c0,5.854 2.04,10.822 6.121,14.902c3.282,3.459 7.274,5.455 11.975,5.988l-0,-15.568l14.503,-0l0,15.568c4.613,-0.533 8.649,-2.529 12.108,-5.988c3.992,-4.08 5.988,-9.048 5.988,-14.902l-0,-35.127l14.769,-0Z" style="fill:#231f20;fill-rule:nonzero;"/><path d="M544.611,73.106c7.008,6.919 10.512,15.213 10.512,24.882c-0,9.757 -3.504,18.007 -10.512,24.748c-7.007,6.83 -15.346,10.246 -25.014,10.246c-9.581,-0 -17.919,-3.416 -25.015,-10.246c-6.919,-6.741 -10.379,-14.991 -10.379,-24.748c0,-9.669 3.46,-17.963 10.379,-24.882c7.096,-6.83 15.434,-10.245 25.015,-10.245c9.668,-0 18.007,3.415 25.014,10.245Zm-10.245,39.784c3.992,-4.08 5.987,-9.048 5.987,-14.902c0,-5.766 -1.995,-10.734 -5.987,-14.903c-4.081,-4.169 -9.004,-6.253 -14.769,-6.253c-5.855,-0 -10.734,2.084 -14.637,6.253c-3.991,4.169 -5.987,9.137 -5.987,14.903c-0,5.854 1.996,10.822 5.987,14.902c3.992,4.08 8.871,6.121 14.637,6.121c5.765,-0 10.688,-2.041 14.769,-6.121Z" style="fill:#231f20;fill-rule:nonzero;"/><path d="M581.012,82.952c-3.992,4.169 -5.988,9.092 -5.988,14.77l0,35.26l-14.769,-0l-0,-35.26c-0,-9.581 3.504,-17.83 10.511,-24.749c6.83,-6.742 15.169,-10.112 25.015,-10.112l9.58,-0l-0,13.838l-9.58,-0c-5.855,-0 -10.778,2.084 -14.769,6.253Z" style="fill:#231f20;fill-rule:nonzero;"/><path d="M661.91,73.239c6.83,6.83 10.245,15.08 10.245,24.749c0,9.58 -3.415,17.785 -10.245,24.615c-6.83,6.919 -14.991,10.379 -24.482,10.379l-26.079,-0l-0,-70.121l26.079,-0c9.491,-0 17.652,3.459 24.482,10.378Zm-10.644,39.518c2.128,-2.04 3.703,-4.302 4.723,-6.786c1.02,-2.484 1.53,-5.145 1.53,-7.983c0,-2.839 -0.51,-5.544 -1.53,-8.117c-1.02,-2.572 -2.55,-4.879 -4.59,-6.919c-4.17,-3.991 -9.093,-5.987 -14.77,-5.987l-11.443,-0l0,41.779l11.443,0c5.589,0 10.467,-1.995 14.637,-5.987Z" style="fill:#231f20;fill-rule:nonzero;"/></g></svg>