<?xml version="1.0" encoding="UTF-8" standalone="no"?><!DOCTYPE svg PUBLIC "-//W3C//DTD SVG 1.1//EN" "http://www.w3.org/Graphics/SVG/1.1/DTD/svg11.dtd"><svg width="100%" height="100%" viewBox="0 0 409 226" version="1.1" xmlns="http://www.w3.org/2000/svg" xmlns:xlink="http://www.w3.org/1999/xlink" xml:space="preserve" xmlns:serif="http://www.serif.com/" style="fill-rule:evenodd;clip-rule:evenodd;stroke-linejoin:round;stroke-miterlimit:2;"><rect id="Artboard1" x="0" y="0" width="408.331" height="225.967" style="fill:none;"/><g><path d="M118.643,41.139l-0,35.127c-0,9.758 -3.504,18.007 -10.512,24.749c-5.233,5.056 -11.132,8.25 -17.696,9.58c-2.484,0.444 -4.924,0.665 -7.319,0.665l-9.18,0c-1.242,0 -2.462,-0.066 -3.66,-0.199c-1.197,-0.133 -2.417,-0.288 -3.659,-0.466c-6.564,-1.33 -12.463,-4.524 -17.696,-9.58c-6.919,-6.742 -10.379,-14.991 -10.379,-24.749l0,-35.127l14.637,0l-0,35.127c-0,5.855 2.04,10.822 6.12,14.903c3.282,3.459 7.274,5.455 11.975,5.987l0,-15.567l14.504,-0l-0,15.567c4.612,-0.532 8.648,-2.528 12.108,-5.987c3.991,-4.081 5.987,-9.048 5.987,-14.903l0,-35.127l14.77,0Z" style="fill:#231f20;fill-rule:nonzero;"/><path d="M126.571,111.26l0,-55.484l16.366,-0l0,55.484l-16.366,0Zm0,-61.605l16.366,0l0,-12.374l-16.366,-0l0,12.374Z" style="fill:#231f20;fill-rule:nonzero;"/><path d="M171.808,61.231c-3.992,4.169 -5.987,9.092 -5.987,14.769l-0,35.26l-14.77,0l0,-35.26c0,-9.58 3.504,-17.829 10.512,-24.748c6.83,-6.742 15.168,-10.113 25.014,-10.113l9.581,0l-0,13.838l-9.581,0c-5.854,0 -10.777,2.085 -14.769,6.254Z" style="fill:#231f20;fill-rule:nonzero;"/><path d="M229.286,111.26c-4.879,-0.088 -9.425,-1.064 -13.638,-2.927c-4.214,-1.863 -7.873,-4.369 -10.977,-7.518c-3.105,-3.149 -5.544,-6.83 -7.318,-11.043c-1.775,-4.214 -2.662,-8.716 -2.662,-13.506c0,-4.878 0.954,-9.447 2.861,-13.704c1.907,-4.258 4.458,-7.984 7.651,-11.177c3.193,-3.194 6.941,-5.699 11.243,-7.518c4.302,-1.818 8.848,-2.728 13.639,-2.728c3.548,0 7.007,0.533 10.378,1.597c3.371,1.065 6.498,2.55 9.38,4.458c2.883,1.907 5.478,4.213 7.784,6.919c2.307,2.705 4.125,5.699 5.456,8.981c-5.057,7.451 -9.026,13.283 -11.909,17.497c-2.883,4.213 -4.768,6.941 -5.655,8.183c-0.887,1.242 -1.663,2.373 -2.328,3.393c-0.666,1.02 -1.264,1.929 -1.797,2.727c-1.153,1.508 -1.729,2.351 -1.729,2.528l-0.267,0.4l33.398,-0l-0,13.438l-43.51,0Zm0.799,-56.549c-3.016,0 -5.788,0.577 -8.317,1.73c-2.528,1.153 -4.745,2.705 -6.652,4.657c-1.908,1.951 -3.393,4.236 -4.458,6.852c-1.064,2.617 -1.596,5.389 -1.596,8.316c-0,4.17 1.153,8.117 3.459,11.843c2.306,3.725 5.411,6.431 9.314,8.116l0.266,-0l23.684,-34.462l-0.665,-0.665c-4.08,-4.258 -9.092,-6.387 -15.035,-6.387Z" style="fill:#231f20;fill-rule:nonzero;"/><path d="M353.77,116.666l-7.484,-8.126c-2.495,2.067 -5.311,3.778 -8.447,5.132c-2.067,0.927 -4.205,1.604 -6.415,2.032c-2.21,0.427 -4.455,0.641 -6.736,0.641c-4.705,0 -9.088,-0.891 -13.151,-2.673c-4.135,-1.782 -7.699,-4.17 -10.692,-7.164c-3.137,-3.136 -5.56,-6.736 -7.271,-10.799c-1.782,-4.205 -2.673,-8.553 -2.673,-13.044c-0,-0.927 0.036,-1.818 0.107,-2.673c0.071,-0.855 0.178,-1.711 0.321,-2.566l13.151,-0c-0.214,0.855 -0.392,1.711 -0.535,2.566c-0.142,0.855 -0.214,1.746 -0.214,2.673c0,2.851 0.553,5.542 1.658,8.073c1.104,2.53 2.601,4.74 4.49,6.629c1.889,1.889 4.099,3.385 6.629,4.49c2.531,1.105 5.257,1.658 8.18,1.658c2.423,-0 4.722,-0.392 6.896,-1.177c2.174,-0.784 4.152,-1.888 5.934,-3.314l-35.711,-38.705l-0,-2.566c-0,-2.994 0.57,-5.792 1.711,-8.394c1.14,-2.601 2.673,-4.882 4.597,-6.843c1.925,-1.96 4.206,-3.51 6.843,-4.651c2.637,-1.14 5.453,-1.71 8.447,-1.71c4.348,-0 8.34,1.176 11.975,3.528c3.635,2.352 6.273,5.56 7.912,9.623c1.14,2.566 1.711,5.381 1.711,8.447l-12.831,-0c0,-1.212 -0.214,-2.353 -0.641,-3.422c-0.713,-1.639 -1.8,-2.94 -3.261,-3.903c-1.462,-0.962 -3.083,-1.443 -4.865,-1.443c-2.067,0 -3.867,0.624 -5.4,1.871c-1.532,1.248 -2.584,2.834 -3.154,4.758l29.938,32.504c0.499,-1.711 0.748,-3.528 0.748,-5.453c0,-1.782 -0.214,-3.528 -0.641,-5.239l13.044,-0c0.143,0.855 0.25,1.711 0.321,2.566c0.071,0.855 0.107,1.746 0.107,2.673c-0,2.281 -0.214,4.509 -0.642,6.683c-0.427,2.174 -1.105,4.294 -2.031,6.361c-0.357,1.07 -0.784,1.996 -1.283,2.78l8.767,9.516l-9.409,8.661Z" style="fill:#231f20;fill-rule:nonzero;"/><path d="M165.788,126.676l-0,35.127c-0,9.757 -3.504,18.007 -10.512,24.749c-5.233,5.056 -11.132,8.249 -17.696,9.58c-2.484,0.443 -4.923,0.665 -7.318,0.665l-9.181,-0c-1.242,-0 -2.462,-0.067 -3.659,-0.2c-1.198,-0.133 -2.418,-0.288 -3.66,-0.465c-6.564,-1.331 -12.462,-4.524 -17.696,-9.58c-6.919,-6.742 -10.378,-14.992 -10.378,-24.749l-0,-35.127l14.636,-0l-0,35.127c-0,5.854 2.04,10.822 6.12,14.902c3.282,3.46 7.274,5.456 11.975,5.988l0,-15.568l14.504,0l-0,15.568c4.612,-0.532 8.648,-2.528 12.108,-5.988c3.992,-4.08 5.987,-9.048 5.987,-14.902l0,-35.127l14.77,-0Z" style="fill:#231f20;fill-rule:nonzero;"/><path d="M231.886,136.921c7.007,6.919 10.511,15.213 10.511,24.882c0,9.757 -3.504,18.007 -10.511,24.749c-7.008,6.83 -15.346,10.245 -25.015,10.245c-9.58,-0 -17.918,-3.415 -25.015,-10.245c-6.918,-6.742 -10.378,-14.992 -10.378,-24.749c0,-9.669 3.46,-17.963 10.378,-24.882c7.097,-6.83 15.435,-10.245 25.015,-10.245c9.669,-0 18.007,3.415 25.015,10.245Zm-10.246,39.784c3.992,-4.08 5.988,-9.048 5.988,-14.902c0,-5.766 -1.996,-10.733 -5.988,-14.902c-4.08,-4.17 -9.003,-6.254 -14.769,-6.254c-5.854,-0 -10.733,2.084 -14.636,6.254c-3.992,4.169 -5.988,9.136 -5.988,14.902c0,5.854 1.996,10.822 5.988,14.902c3.992,4.081 8.87,6.121 14.636,6.121c5.766,-0 10.689,-2.04 14.769,-6.121Z" style="fill:#231f20;fill-rule:nonzero;"/><path d="M268.286,146.768c-3.992,4.169 -5.987,9.092 -5.987,14.769l-0,35.26l-14.77,-0l0,-35.26c0,-9.58 3.504,-17.83 10.512,-24.749c6.83,-6.741 15.168,-10.112 25.014,-10.112l9.581,-0l-0,13.838l-9.581,-0c-5.854,-0 -10.777,2.084 -14.769,6.254Z" style="fill:#231f20;fill-rule:nonzero;"/><path d="M349.185,137.054c6.83,6.831 10.245,15.08 10.245,24.749c0,9.58 -3.415,17.785 -10.245,24.615c-6.831,6.919 -14.991,10.379 -24.483,10.379l-26.079,-0l0,-70.121l26.079,-0c9.492,-0 17.652,3.459 24.483,10.378Zm-10.645,39.518c2.129,-2.04 3.704,-4.302 4.724,-6.786c1.02,-2.483 1.53,-5.144 1.53,-7.983c-0,-2.839 -0.51,-5.544 -1.53,-8.117c-1.02,-2.572 -2.551,-4.878 -4.591,-6.918c-4.169,-3.992 -9.092,-5.988 -14.769,-5.988l-11.443,-0l0,41.78l11.443,-0c5.588,-0 10.467,-1.996 14.636,-5.988Z" style="fill:#231f20;fill-rule:nonzero;"/></g></svg>